<svg width="375" height="375" viewBox="0 0 375 375" fill="none" xmlns="http://www.w3.org/2000/svg">
    <g clip-path="url(#clip0_1400_7293)">
        <g opacity="0.2">
            <path d="M275.269 291.077C332.474 233.872 332.474 141.123 275.269 83.9172C218.063 26.7115 125.314 26.7115 68.1085 83.9172C10.9028 141.123 10.9028 233.872 68.1085 291.077C125.314 348.283 218.063 348.283 275.269 291.077Z" fill="#F7B318"/>
        </g>
        <path d="M322.507 199.658C319.941 199.082 317.288 199.005 314.692 199.431C306.335 200.852 301.428 207.415 297.063 212.227C290.245 219.625 282.249 225.842 273.398 230.625L233.496 195.974L220.459 204.587C228.667 217.404 238.459 229.135 249.602 239.502C258.032 247.332 262.368 251.287 268.14 252.971C294.163 260.588 332.358 228.34 328.301 208.872C327.48 204.888 325.005 201.87 322.507 199.658Z" fill="white"/>
        <path d="M267.935 253.645C261.877 251.872 257.344 247.661 249.104 240.007C237.905 229.61 228.062 217.842 219.807 204.983C219.702 204.82 219.665 204.623 219.705 204.434C219.745 204.244 219.858 204.078 220.02 203.972L233.079 195.359C233.212 195.27 233.372 195.228 233.532 195.238C233.692 195.249 233.844 195.312 233.965 195.417L273.516 229.739C282.109 225.01 289.884 218.929 296.543 211.728C301.282 206.514 306.152 200.141 314.59 198.706C317.278 198.262 320.026 198.342 322.683 198.94C322.805 198.969 322.918 199.027 323.013 199.109C326.294 202.038 328.323 205.232 329.041 208.689C333.252 228.86 294.324 261.365 267.935 253.645ZM221.448 204.8C229.553 217.318 239.177 228.785 250.1 238.938C258.787 246.995 262.852 250.657 268.345 252.239C293.906 259.717 331.509 227.82 327.59 208.989C326.946 205.898 325.122 202.991 322.163 200.332C319.754 199.815 317.27 199.753 314.839 200.149C307.009 201.482 302.556 207.29 297.627 212.717C290.744 220.162 282.688 226.429 273.779 231.269C273.648 231.342 273.497 231.373 273.348 231.357C273.199 231.341 273.058 231.28 272.944 231.182L233.459 196.89L221.448 204.8Z" fill="#090817"/>
        <path d="M276.211 228.237C278.394 236.919 280.574 245.596 282.751 254.268L294.961 253.132L291.13 215.779L276.211 228.237Z" fill="#F7B318"/>
        <path d="M146.133 269.37L151.223 333.882H112.405L113.672 306.05C110.469 315.244 107.263 324.441 104.055 333.64L59.6484 333.984C64.3408 318.56 69.0405 303.132 73.7476 287.703L125.083 284.722L146.133 269.37Z" fill="#080717"/>
        <path d="M91.2964 166.047C78.2373 179.729 69.6313 185.823 69.6313 185.823L82.4121 200.186L110.713 203.408L128.005 163.601C128.005 163.601 104.363 152.344 91.2964 166.047Z" fill="#F7B318"/>
        <path d="M169.614 135.784C169.988 132.624 170.147 129.443 170.09 126.262C169.885 112.346 158.21 100.818 143.774 102.202C137.693 101.471 131.539 102.736 126.239 105.806C120.939 108.877 116.78 113.586 114.389 119.225C111.997 124.864 111.503 131.127 112.98 137.071C114.457 143.015 117.825 148.319 122.578 152.183L116.968 171.606L132.766 176.177L137.351 160.298C142.073 161.881 147.135 162.154 151.999 161.089C161.228 159.097 166.113 151.436 168.398 142.427C168.846 142.546 169.314 142.572 169.773 142.502C170.231 142.432 170.67 142.268 171.062 142.02C171.454 141.772 171.79 141.446 172.05 141.062C172.31 140.678 172.487 140.244 172.571 139.788C172.655 139.332 172.644 138.864 172.539 138.413C172.433 137.961 172.235 137.536 171.957 137.165C171.68 136.794 171.328 136.484 170.925 136.255C170.522 136.026 170.075 135.883 169.614 135.835V135.784Z" fill="white"/>
        <path d="M132.766 176.873C132.612 176.873 133.499 177.107 116.763 172.273C116.67 172.246 116.584 172.201 116.509 172.141C116.434 172.081 116.372 172.006 116.326 171.922C116.232 171.752 116.21 171.551 116.265 171.365L121.743 152.402C116.974 148.388 113.626 142.942 112.196 136.874C110.766 130.806 111.331 124.439 113.805 118.717C116.28 112.995 120.534 108.223 125.935 105.11C131.336 101.996 137.597 100.707 143.789 101.433C158.511 100.056 170.61 112.009 170.823 126.218C170.878 129.229 170.741 132.241 170.413 135.234C171.218 135.509 171.917 136.029 172.411 136.721C172.905 137.414 173.169 138.244 173.166 139.094C173.165 139.642 173.053 140.184 172.839 140.688C172.625 141.192 172.312 141.648 171.919 142.03C171.526 142.411 171.061 142.71 170.55 142.909C170.04 143.108 169.495 143.203 168.948 143.189C166.15 153.582 160.356 159.998 152.153 161.763C147.415 162.804 142.488 162.604 137.849 161.184L133.455 176.345C133.411 176.495 133.321 176.627 133.197 176.722C133.073 176.817 132.922 176.87 132.766 176.873ZM117.876 171.072L132.261 175.232L136.655 160.056C136.683 159.961 136.729 159.873 136.792 159.796C136.854 159.72 136.932 159.657 137.019 159.611C137.107 159.565 137.203 159.537 137.301 159.529C137.4 159.522 137.499 159.534 137.593 159.566C142.193 161.09 147.12 161.343 151.853 160.298C159.749 158.591 165.073 152.498 167.695 142.17C167.742 141.988 167.857 141.831 168.017 141.732C168.176 141.632 168.368 141.598 168.552 141.636C168.9 141.72 169.261 141.733 169.613 141.673C169.966 141.613 170.303 141.481 170.603 141.287C170.903 141.092 171.16 140.839 171.359 140.541C171.557 140.244 171.693 139.909 171.758 139.557C171.823 139.206 171.815 138.844 171.736 138.496C171.656 138.147 171.506 137.818 171.296 137.53C171.085 137.241 170.817 136.998 170.509 136.816C170.201 136.634 169.859 136.517 169.504 136.472C169.316 136.443 169.147 136.342 169.032 136.19C168.917 136.039 168.866 135.848 168.889 135.659C169.263 132.522 169.422 129.363 169.365 126.204C169.189 112.793 157.742 101.565 143.848 102.898H143.686C137.759 102.184 131.759 103.416 126.593 106.409C121.427 109.402 117.373 113.994 115.044 119.491C112.715 124.989 112.236 131.095 113.679 136.888C115.123 142.682 118.41 147.849 123.047 151.611C123.151 151.699 123.229 151.814 123.272 151.943C123.315 152.073 123.32 152.211 123.289 152.344L117.876 171.072Z" fill="#090817"/>
        <path d="M341.873 252.729C336.138 220.327 339.316 212.234 330.952 204.69C328.349 202.388 325.345 200.583 322.09 199.365L321.746 187.222C327.368 184.726 332.023 180.463 335.003 175.082C337.983 169.7 339.126 163.493 338.259 157.403C337.391 151.313 334.561 145.672 330.197 141.337C325.832 137.002 320.173 134.208 314.077 133.381C300.476 128.423 286.245 136.641 282.583 150.066C281.163 155.047 280.356 160.182 280.181 165.359C279.673 165.309 279.161 165.369 278.679 165.537C278.197 165.704 277.757 165.974 277.39 166.327C277.023 166.681 276.737 167.111 276.552 167.586C276.366 168.061 276.287 168.571 276.318 169.08C276.349 169.589 276.49 170.085 276.732 170.534C276.974 170.983 277.31 171.375 277.718 171.681C278.125 171.987 278.595 172.202 279.093 172.309C279.592 172.416 280.108 172.414 280.605 172.302C281.682 179.114 284.832 185.032 291.357 188.32C295.704 190.528 300.56 191.539 305.427 191.25L305.632 198.625C288.369 205.276 282.847 243.376 290.654 293.43H350.713C347.754 279.858 344.29 266.396 341.873 252.729Z" fill="white"/>
        <path d="M350.691 294.155H290.632C290.457 294.157 290.286 294.097 290.152 293.984C290.017 293.871 289.928 293.713 289.9 293.54C281.982 242.644 287.842 205.334 304.871 198.135L304.702 192.012C299.956 192.161 295.248 191.113 291.013 188.965C285.044 185.962 281.338 180.63 279.99 173.108C278.886 173.139 277.813 172.74 276.997 171.995C276.181 171.25 275.686 170.217 275.617 169.114C275.548 168.012 275.909 166.925 276.625 166.084C277.341 165.243 278.356 164.712 279.456 164.604C279.695 159.617 280.501 154.673 281.858 149.868C285.645 136.143 300.374 127.646 314.253 132.656C320.458 133.513 326.219 136.356 330.673 140.76C335.128 145.163 338.037 150.891 338.964 157.086C339.892 163.281 338.789 169.61 335.819 175.125C332.85 180.641 328.175 185.046 322.493 187.683L322.808 198.852C325.973 200.094 328.895 201.882 331.443 204.133C337.083 209.26 337.676 214.651 338.972 226.523C342.363 257.498 345.886 267.759 351.423 293.262C351.448 293.37 351.447 293.483 351.422 293.592C351.396 293.7 351.346 293.801 351.275 293.887C351.205 293.974 351.115 294.042 351.014 294.089C350.913 294.135 350.802 294.158 350.691 294.155ZM291.27 292.69H349.783C343.975 266.081 340.84 257.065 337.522 226.685C336.226 214.849 335.691 209.949 330.461 205.232C327.924 202.99 324.997 201.232 321.826 200.046C321.692 199.995 321.576 199.905 321.493 199.787C321.409 199.67 321.362 199.531 321.357 199.387L321.021 187.244C321.017 187.099 321.055 186.956 321.132 186.834C321.209 186.711 321.321 186.614 321.453 186.555C326.931 184.125 331.467 179.973 334.371 174.73C337.275 169.487 338.389 163.44 337.544 157.507C336.699 151.573 333.94 146.078 329.688 141.854C325.436 137.631 319.921 134.911 313.982 134.106H313.828C300.718 129.324 286.838 137.366 283.272 150.3C281.875 155.223 281.078 160.296 280.898 165.41C280.896 165.512 280.873 165.612 280.83 165.704C280.787 165.796 280.726 165.878 280.649 165.945C280.554 166.023 280.441 166.079 280.32 166.107C280.2 166.135 280.074 166.134 279.954 166.106C279.558 166.09 279.163 166.159 278.796 166.308C278.429 166.457 278.097 166.682 277.824 166.969C277.55 167.256 277.341 167.598 277.21 167.972C277.079 168.346 277.029 168.743 277.064 169.138C277.099 169.533 277.217 169.916 277.411 170.261C277.605 170.606 277.87 170.907 278.19 171.142C278.509 171.376 278.874 171.541 279.262 171.623C279.649 171.706 280.05 171.705 280.437 171.621C280.534 171.6 280.635 171.599 280.733 171.618C280.831 171.637 280.924 171.676 281.006 171.732C281.088 171.788 281.158 171.861 281.211 171.945C281.265 172.029 281.3 172.123 281.316 172.222C282.481 179.619 285.967 184.827 291.672 187.698C295.905 189.843 300.631 190.829 305.369 190.554C305.468 190.548 305.568 190.563 305.662 190.597C305.756 190.631 305.842 190.684 305.915 190.752C305.988 190.821 306.046 190.904 306.085 190.996C306.125 191.088 306.145 191.187 306.145 191.287L306.35 198.655C306.36 198.811 306.321 198.966 306.236 199.098C306.152 199.23 306.028 199.331 305.881 199.387C297.73 202.522 292.053 213.083 289.453 229.936C286.875 246.555 287.505 268.271 291.27 292.69Z" fill="#090817"/>
        <path d="M125.53 163.63C131.197 163.627 136.762 165.144 141.643 168.025C147.231 171.233 150.432 175.283 154.263 180.571C160.811 189.642 166.889 199.044 172.471 208.74L216.064 188.049L227.051 199.519C193.359 235.752 175.173 239.37 164.744 235.664C139.16 220.137 122.065 194.341 125.53 163.63Z" fill="#F7B318"/>
        <path d="M128.005 163.63C131.528 164.465 140.457 166.56 146.213 173.437C153.186 181.765 151.487 192.429 149.363 211.948C148.088 223.616 146.433 240.549 145.085 261.665L76.0986 261.577C76.7285 229.504 82.9468 205.752 88.1763 190.679C93.3032 175.818 98.5547 166.399 108.135 162.847C115.723 160.027 123.34 161.916 128.005 163.63Z" fill="#F7B318"/>
        <path d="M76.9629 249.023C75.2404 253.731 74.1111 258.634 73.6011 263.621C72.7295 272.197 74.1797 276.46 73.8135 286.326C73.6049 291.657 72.9359 296.96 71.814 302.175H148.03L145.408 256.838L76.9629 249.023Z" fill="#080717"/>
        <path d="M289.49 285.395L289.16 333.735L360.981 333.867C360.981 333.867 359.18 301.772 348.896 285.381L289.49 285.395Z" fill="#080717"/>
        <path d="M86.8176 154.388L16.2388 188.888C14.389 189.792 13.6225 192.024 14.5266 193.874L60.3935 287.707C61.2977 289.557 63.5302 290.324 65.38 289.419L135.959 254.92C137.809 254.015 138.575 251.783 137.671 249.933L91.804 156.1C90.8999 154.25 88.6673 153.484 86.8176 154.388Z" fill="white"/>
        <path d="M59.7363 288.039L13.8647 194.202C13.3467 193.139 13.2717 191.914 13.6563 190.796C14.0408 189.678 14.8534 188.759 15.9155 188.24L86.499 153.735C87.025 153.478 87.5966 153.327 88.1811 153.29C88.7656 153.254 89.3516 153.333 89.9054 153.524C90.4592 153.714 90.9699 154.012 91.4084 154.4C91.847 154.789 92.2046 155.259 92.4609 155.786L138.325 249.617C138.844 250.679 138.92 251.905 138.537 253.024C138.154 254.143 137.343 255.064 136.282 255.586C136.208 255.586 138.889 254.311 65.6982 290.083C64.6365 290.601 63.4123 290.677 62.2946 290.294C61.1768 289.911 60.2567 289.1 59.7363 288.039ZM88.4546 154.739C87.3852 154.739 91.8969 152.724 16.56 189.543C15.8462 189.892 15.3001 190.51 15.0418 191.261C14.7836 192.013 14.8344 192.836 15.1831 193.55L61.0473 287.395C61.399 288.106 62.0171 288.65 62.7673 288.907C63.5175 289.165 64.3392 289.117 65.0537 288.772L135.637 254.267C136.35 253.917 136.894 253.299 137.153 252.548C137.411 251.798 137.361 250.975 137.014 250.261L91.1426 156.431C90.8978 155.926 90.5159 155.5 90.0405 155.202C89.5652 154.904 89.0156 154.746 88.4546 154.746V154.739Z" fill="#090817"/>
        <path d="M67.0179 162.418L34.7357 178.198C33.8235 178.644 33.4455 179.745 33.8914 180.657L36.0657 185.105C36.5116 186.017 37.6125 186.395 38.5247 185.949L70.8069 170.169C71.7191 169.724 72.0971 168.623 71.6512 167.711L69.4769 163.262C69.031 162.35 67.9301 161.972 67.0179 162.418Z" fill="#080717"/>
        <path d="M54.2593 177.235C58.2532 175.283 60.2669 171.196 58.7569 168.107C57.247 165.018 52.7852 164.096 48.7913 166.049C44.7974 168.001 42.7838 172.088 44.2938 175.177C45.8037 178.266 50.2654 179.187 54.2593 177.235Z" fill="#080717"/>
        <mask id="mask0_1400_7293" style="mask-type:luminance" maskUnits="userSpaceOnUse" x="31" y="195" width="31" height="30">
            <path d="M46.6699 224.539C54.8086 224.539 61.4062 217.941 61.4062 209.802C61.4062 201.664 54.8086 195.066 46.6699 195.066C38.5313 195.066 31.9336 201.664 31.9336 209.802C31.9336 217.941 38.5313 224.539 46.6699 224.539Z" fill="white"/>
        </mask>
        <g mask="url(#mask0_1400_7293)">
            <path d="M46.6699 224.539C54.8086 224.539 61.4062 217.941 61.4062 209.802C61.4062 201.664 54.8086 195.066 46.6699 195.066C38.5313 195.066 31.9336 201.664 31.9336 209.802C31.9336 217.941 38.5313 224.539 46.6699 224.539Z" fill="white"/>
            <path d="M46.6919 225.271C43.9324 225.267 41.2241 224.526 38.8478 223.123C36.4716 221.72 34.5139 219.706 33.1778 217.292C31.8417 214.878 31.1758 212.15 31.2491 209.391C31.3225 206.633 32.1324 203.944 33.5949 201.604C35.0575 199.264 37.1194 197.358 39.5668 196.083C42.0142 194.808 44.7581 194.211 47.5139 194.354C50.2697 194.497 52.9371 195.375 55.2395 196.896C57.5418 198.417 59.3954 200.527 60.6079 203.005C61.7559 205.366 62.2852 207.979 62.1462 210.6C62.0072 213.222 61.2045 215.764 59.8133 217.99C58.4222 220.216 56.4882 222.052 54.1931 223.326C51.8979 224.599 49.3167 225.269 46.6919 225.271ZM46.6479 195.791C43.6057 195.795 40.6472 196.788 38.2197 198.622C35.7921 200.456 34.0273 203.03 33.192 205.955C32.3566 208.88 32.4961 211.998 33.5894 214.837C34.6826 217.676 36.6702 220.082 39.2518 221.692C41.8334 223.301 44.8687 224.027 47.8992 223.759C50.9296 223.491 53.7905 222.244 56.0495 220.206C58.3085 218.168 59.8429 215.451 60.4208 212.464C60.9987 209.477 60.5888 206.383 59.2529 203.65C58.0983 201.291 56.3046 199.304 54.0762 197.915C51.8477 196.525 49.274 195.79 46.6479 195.791Z" fill="#090817"/>
            <path d="M47.2163 209.532L46.1306 210.063C43.1324 211.529 41.89 215.147 43.3556 218.145L49.2256 230.154C50.6911 233.152 54.3097 234.395 57.3078 232.929L58.3936 232.398C61.3917 230.933 62.6341 227.314 61.1686 224.316L55.2985 212.307C53.833 209.309 50.2145 208.067 47.2163 209.532Z" fill="#080717"/>
            <path d="M45.0659 212.732C48.5002 212.732 51.2842 209.948 51.2842 206.514C51.2842 203.079 48.5002 200.295 45.0659 200.295C41.6317 200.295 38.8477 203.079 38.8477 206.514C38.8477 209.948 41.6317 212.732 45.0659 212.732Z" fill="#080717"/>
        </g>
        <path d="M65.7495 192.825C65.5834 192.825 65.4221 192.77 65.2919 192.666C65.1617 192.563 65.0704 192.419 65.0329 192.257C64.9955 192.096 65.0141 191.926 65.0857 191.776C65.1574 191.626 65.2778 191.505 65.4272 191.433L90.9814 178.945C91.1554 178.867 91.353 178.86 91.5322 178.925C91.7114 178.99 91.8581 179.123 91.9411 179.295C92.0241 179.466 92.0368 179.664 91.9766 179.845C91.9164 180.026 91.788 180.176 91.6186 180.264C64.2773 193.63 66.0132 192.825 65.7495 192.825Z" fill="#080717"/>
        <path d="M69.6386 200.771C69.4726 200.772 69.3113 200.716 69.1811 200.613C69.0509 200.51 68.9595 200.366 68.9221 200.204C68.8846 200.043 68.9032 199.873 68.9749 199.723C69.0465 199.573 69.1669 199.452 69.3164 199.38L94.8633 186.892C95.0348 186.823 95.2261 186.821 95.3989 186.887C95.5716 186.953 95.713 187.082 95.7946 187.248C95.8762 187.414 95.892 187.605 95.8388 187.782C95.7856 187.959 95.6673 188.11 95.5078 188.203C68.1591 201.577 69.895 200.771 69.6386 200.771Z" fill="#080717"/>
        <path d="M73.5205 208.74C73.3544 208.741 73.1931 208.685 73.0629 208.582C72.9327 208.479 72.8414 208.335 72.8039 208.173C72.7665 208.011 72.7851 207.842 72.8567 207.692C72.9284 207.542 73.0488 207.421 73.1982 207.349L98.7451 194.824C98.9199 194.739 99.1215 194.726 99.3056 194.79C99.4896 194.853 99.6411 194.986 99.7265 195.161C99.812 195.336 99.8245 195.538 99.7613 195.722C99.6982 195.906 99.5644 196.057 99.3896 196.143C72.041 209.517 73.7841 208.74 73.5205 208.74Z" fill="#080717"/>
        <path d="M41.7481 234.067C41.5847 234.065 41.4268 234.008 41.2997 233.905C41.1725 233.803 41.0833 233.66 41.0462 233.501C41.0092 233.342 41.0264 233.175 41.0952 233.027C41.164 232.879 41.2804 232.758 41.4258 232.683L102.605 202.778C102.692 202.736 102.786 202.711 102.882 202.705C102.978 202.699 103.075 202.712 103.166 202.743C103.257 202.774 103.341 202.823 103.413 202.887C103.485 202.951 103.544 203.029 103.586 203.115C103.629 203.202 103.654 203.296 103.66 203.392C103.666 203.488 103.653 203.585 103.622 203.676C103.59 203.767 103.541 203.851 103.478 203.923C103.414 203.996 103.336 204.055 103.25 204.097C37.6026 236.191 42.0337 234.067 41.7481 234.067Z" fill="#080717"/>
        <path d="M45.6518 242.014C45.4858 242.015 45.3244 241.959 45.1942 241.856C45.064 241.753 44.9727 241.609 44.9353 241.447C44.8978 241.285 44.9164 241.116 44.9881 240.966C45.0597 240.816 45.1801 240.695 45.3296 240.623L106.509 210.725C106.683 210.639 106.884 210.625 107.068 210.687C107.252 210.749 107.404 210.881 107.49 211.055C107.533 211.141 107.558 211.235 107.564 211.332C107.57 211.428 107.557 211.524 107.526 211.615C107.494 211.707 107.445 211.791 107.381 211.863C107.317 211.935 107.24 211.994 107.153 212.036C41.4843 244.131 45.9155 242.014 45.6518 242.014Z" fill="#080717"/>
        <path d="M49.5337 249.961C49.3676 249.962 49.2063 249.906 49.0761 249.803C48.9459 249.7 48.8546 249.556 48.8171 249.394C48.7796 249.232 48.7983 249.062 48.8699 248.913C48.9415 248.763 49.062 248.642 49.2114 248.569L70.9863 237.927C71.0732 237.876 71.1696 237.844 71.2696 237.832C71.3696 237.82 71.471 237.829 71.5674 237.858C71.6639 237.887 71.7533 237.935 71.8302 238C71.907 238.065 71.9696 238.146 72.014 238.236C72.0585 238.326 72.0838 238.425 72.0884 238.525C72.093 238.626 72.0768 238.727 72.0409 238.821C72.0049 238.915 71.9499 239 71.8794 239.072C71.8088 239.144 71.7242 239.201 71.6308 239.238C48.23 250.679 49.8047 249.961 49.5337 249.961Z" fill="#080717"/>
        <path d="M76.018 237.012C75.852 237.013 75.6906 236.957 75.5604 236.854C75.4303 236.751 75.3389 236.606 75.3015 236.445C75.264 236.283 75.2826 236.113 75.3543 235.963C75.4259 235.814 75.5463 235.693 75.6958 235.62L110.391 218.665C110.477 218.622 110.571 218.597 110.667 218.591C110.764 218.586 110.86 218.599 110.951 218.63C111.042 218.661 111.126 218.71 111.199 218.774C111.271 218.838 111.33 218.915 111.372 219.002C111.414 219.088 111.439 219.182 111.445 219.278C111.451 219.375 111.438 219.471 111.407 219.562C111.376 219.653 111.327 219.737 111.263 219.809C111.199 219.882 111.122 219.941 111.035 219.983C73.8354 238.162 76.2817 237.012 76.018 237.012Z" fill="#080717"/>
        <path d="M53.5107 258.098C53.3447 258.099 53.1833 258.043 53.0531 257.94C52.9229 257.837 52.8316 257.693 52.7942 257.531C52.7567 257.369 52.7753 257.2 52.8469 257.05C52.9186 256.9 53.039 256.779 53.1884 256.707L74.9633 246.094C75.0502 246.043 75.1467 246.01 75.2467 245.998C75.3467 245.986 75.448 245.995 75.5445 246.024C75.6409 246.053 75.7304 246.102 75.8072 246.167C75.8841 246.232 75.9467 246.312 75.9911 246.402C76.0355 246.493 76.0608 246.591 76.0655 246.692C76.0701 246.793 76.0539 246.893 76.0179 246.987C75.982 247.081 75.927 247.167 75.8564 247.239C75.7859 247.311 75.7013 247.367 75.6079 247.405C52.207 258.816 53.7744 258.098 53.5107 258.098Z" fill="#080717"/>
        <path d="M79.9951 245.149C79.829 245.15 79.6677 245.094 79.5375 244.991C79.4073 244.888 79.316 244.744 79.2785 244.582C79.2411 244.42 79.2597 244.25 79.3313 244.101C79.403 243.951 79.5234 243.83 79.6728 243.757L114.368 226.802C114.542 226.716 114.744 226.704 114.928 226.767C115.112 226.83 115.264 226.964 115.349 227.139C115.435 227.314 115.447 227.515 115.384 227.699C115.321 227.883 115.187 228.035 115.012 228.12C77.8125 246.299 80.2588 245.149 79.9951 245.149Z" fill="#080717"/>
        <path d="M57.4878 266.235C57.3217 266.236 57.1604 266.18 57.0302 266.077C56.9 265.974 56.8087 265.83 56.7712 265.668C56.7337 265.507 56.7524 265.337 56.824 265.187C56.8956 265.037 57.0161 264.916 57.1655 264.844L78.9477 254.202C79.0349 254.148 79.1322 254.113 79.2336 254.1C79.335 254.086 79.4381 254.094 79.5363 254.123C79.6345 254.151 79.7256 254.2 79.8037 254.266C79.8819 254.332 79.9454 254.414 79.9901 254.506C80.0348 254.598 80.0598 254.698 80.0633 254.8C80.0669 254.902 80.0491 255.004 80.0109 255.099C79.9727 255.194 79.9151 255.28 79.8417 255.351C79.7684 255.422 79.6809 255.477 79.5849 255.513C56.1841 266.953 57.7514 266.235 57.4878 266.235Z" fill="#080717"/>
        <path d="M83.9721 253.286C83.8061 253.287 83.6447 253.231 83.5146 253.128C83.3844 253.025 83.293 252.881 83.2556 252.719C83.2181 252.557 83.2367 252.388 83.3084 252.238C83.38 252.088 83.5004 251.967 83.6499 251.895L118.345 234.939C118.431 234.897 118.525 234.872 118.622 234.865C118.718 234.859 118.814 234.872 118.905 234.904C118.997 234.935 119.081 234.984 119.153 235.048C119.225 235.112 119.284 235.189 119.326 235.276C119.369 235.362 119.394 235.457 119.4 235.553C119.406 235.649 119.393 235.745 119.361 235.837C119.33 235.928 119.281 236.012 119.217 236.084C119.153 236.156 119.076 236.215 118.989 236.257C81.7895 254.436 84.2285 253.286 83.9721 253.286Z" fill="#080717"/>
        <path d="M61.1865 273.787C61.0205 273.787 60.8591 273.732 60.7289 273.629C60.5987 273.526 60.5074 273.381 60.4699 273.22C60.4325 273.058 60.4511 272.888 60.5227 272.738C60.5944 272.588 60.7148 272.467 60.8642 272.395L104.004 251.316C104.179 251.231 104.38 251.218 104.564 251.281C104.748 251.344 104.9 251.478 104.985 251.653C105.071 251.828 105.083 252.029 105.02 252.213C104.957 252.397 104.823 252.549 104.648 252.634C58.3594 275.252 61.4502 273.787 61.1865 273.787Z" fill="#080717"/>
        <path d="M65.0683 281.733C64.9023 281.734 64.7409 281.678 64.6107 281.575C64.4805 281.472 64.3892 281.328 64.3518 281.166C64.3143 281.004 64.3329 280.835 64.4046 280.685C64.4762 280.535 64.5966 280.414 64.7461 280.342L125.925 250.437C126.099 250.359 126.297 250.352 126.476 250.417C126.655 250.482 126.802 250.615 126.885 250.786C126.968 250.958 126.981 251.155 126.92 251.336C126.86 251.517 126.732 251.668 126.562 251.755C60.9009 283.85 65.332 281.733 65.0683 281.733Z" fill="#080717"/>
        <path d="M138.221 163.332L117.993 156.188L113.664 168.447L133.892 175.59L138.221 163.332Z" fill="#F7B318"/>
        <path d="M22.3682 217.383C21.8921 217.332 20.8594 217.229 20.4712 216.504C20.083 215.779 20.4126 214.819 21.2036 213.897C21.2036 213.897 16.648 212.38 18.4863 209.766C18.4863 209.766 14.2822 208.645 16.1792 205.466C16.1792 205.466 13.0078 203.665 14.3848 201.182C15.7617 198.699 24.2871 197.879 25.9204 199.131C27.5537 200.383 24.2358 202.573 24.2358 202.573C24.2358 202.573 29.8242 202.712 26.1108 206.06C26.1108 206.06 31.7358 205.957 28.2275 210.278C30.3149 210.322 30.9741 210.791 31.1572 211.253C31.875 213.069 26.4478 217.793 22.3682 217.383Z" fill="white"/>
        <path d="M22.8735 218.137C19.7387 218.137 18.9331 216.233 20.0683 214.226C18.3105 213.398 16.8457 211.992 17.4463 210.205C15.4834 209.341 14.3921 207.737 15.2124 205.759C13.9599 204.815 12.5537 202.991 13.7475 200.867C15.3149 197.974 24.3164 197.022 26.3672 198.545C27.6416 199.526 27.0996 200.94 25.9863 202.083C27.9419 202.588 28.7109 203.892 27.6269 205.481C29.8974 205.972 30.7837 207.51 29.5605 209.641C35.8008 210.557 28.4399 218.137 22.8735 218.137ZM22.8076 199.285C21.5157 199.291 20.2276 199.426 18.9624 199.688C16.9189 200.112 15.4028 200.823 15.0073 201.541C14.0039 203.357 16.4209 204.771 16.5234 204.836C16.6083 204.884 16.6828 204.949 16.7426 205.026C16.8023 205.103 16.8461 205.191 16.8713 205.285C16.8965 205.379 16.9027 205.477 16.8895 205.574C16.8763 205.67 16.844 205.763 16.7944 205.847C16.6169 206.081 16.4977 206.354 16.4467 206.643C16.3957 206.932 16.4145 207.229 16.5014 207.51C16.8603 208.403 18.2153 208.938 18.6621 209.063C18.7754 209.093 18.8798 209.15 18.9664 209.229C19.0531 209.308 19.1195 209.407 19.1601 209.517C19.4018 210.183 18.5522 210.476 18.8159 211.282C19.1308 212.241 20.8447 213.01 21.4233 213.201C21.5377 213.238 21.6412 213.303 21.7245 213.39C21.8078 213.477 21.8684 213.583 21.901 213.699C21.9336 213.815 21.9371 213.937 21.9113 214.054C21.8855 214.172 21.8311 214.281 21.7529 214.373C21.0791 215.164 20.9472 215.837 21.1157 216.16C21.2842 216.482 22.1338 216.621 22.4414 216.65C24.9536 216.914 28.3887 214.841 29.8974 212.827C30.4175 212.139 30.52 211.67 30.4614 211.523C30.4614 211.523 30.249 211.055 28.1982 211.011C28.0615 211.007 27.9285 210.965 27.8143 210.89C27.7001 210.815 27.6093 210.709 27.5521 210.585C27.495 210.461 27.4737 210.323 27.4908 210.187C27.5079 210.051 27.5627 209.923 27.6489 209.817C28.4399 208.836 28.7842 208.03 28.5718 207.62C28.2934 207.048 26.9385 206.792 26.1108 206.814C25.9594 206.816 25.8111 206.771 25.6864 206.685C25.5617 206.599 25.4667 206.476 25.4145 206.334C25.3623 206.192 25.3554 206.037 25.3949 205.891C25.4343 205.745 25.5181 205.614 25.6347 205.518C26.5649 204.683 26.7187 204.192 26.6601 204.053C26.5137 203.665 25.2612 203.32 24.2285 203.32C24.0739 203.315 23.925 203.26 23.8033 203.165C23.6815 203.069 23.5932 202.937 23.5509 202.789C23.5086 202.64 23.5145 202.481 23.5678 202.336C23.6211 202.191 23.7191 202.066 23.8476 201.98C24.5801 201.482 25.6421 200.515 25.6567 199.981C25.6714 199.446 23.4375 199.285 22.8076 199.285Z" fill="#090817"/>
        <path d="M21.189 214.6C21.0235 214.599 20.8633 214.542 20.7344 214.438C20.6055 214.334 20.5154 214.19 20.4789 214.029C20.4424 213.867 20.4615 213.699 20.5333 213.549C20.605 213.4 20.7251 213.28 20.874 213.208L28.4546 209.612C28.6295 209.529 28.8301 209.518 29.0127 209.583C29.1952 209.647 29.3448 209.782 29.4287 209.956C29.4707 210.043 29.4949 210.138 29.5 210.235C29.505 210.332 29.4908 210.429 29.458 210.52C29.4253 210.612 29.3748 210.695 29.3094 210.767C29.2441 210.839 29.1651 210.897 29.0771 210.937C20.7788 214.907 21.4233 214.6 21.189 214.6Z" fill="#080717"/>
        <path d="M17.9443 210.315C17.775 210.316 17.6104 210.259 17.4786 210.153C17.3468 210.046 17.2559 209.898 17.2213 209.732C17.1868 209.566 17.2108 209.393 17.2892 209.243C17.3676 209.093 17.4956 208.975 17.6514 208.909L25.8105 205.386C25.9893 205.309 26.1911 205.306 26.3717 205.378C26.5524 205.451 26.6969 205.591 26.7737 205.77C26.8504 205.949 26.853 206.151 26.7809 206.331C26.7088 206.512 26.5679 206.657 26.3892 206.733C17.6367 210.513 18.1641 210.315 17.9443 210.315Z" fill="#080717"/>
        <path d="M16.1645 206.199C15.9924 206.199 15.8258 206.138 15.694 206.027C15.5622 205.916 15.4737 205.762 15.444 205.593C15.4143 205.423 15.4452 205.249 15.5315 205.1C15.6177 204.95 15.7537 204.837 15.9155 204.778L23.9722 201.885C24.1532 201.825 24.3504 201.838 24.5219 201.922C24.6934 202.005 24.8256 202.152 24.8905 202.331C24.9553 202.51 24.9477 202.708 24.8692 202.882C24.7907 203.056 24.6476 203.192 24.4702 203.262C15.7837 206.382 16.3477 206.199 16.1645 206.199Z" fill="#080717"/>
        <path d="M304.9 198.04C304.9 198.04 314.634 203.086 322.895 198.647C322.895 198.647 335.2 199.6 338.555 216.226C341.909 232.852 357.209 293.452 357.209 293.452L289.49 297.502C289.49 297.502 284.414 252.393 284.875 234.514C285.337 216.636 296.177 199.46 304.9 198.04Z" fill="#F7B318"/>
        <path d="M222.488 209.128C246.366 209.128 265.723 189.772 265.723 165.894C265.723 142.016 246.366 122.659 222.488 122.659C198.61 122.659 179.253 142.016 179.253 165.894C179.253 189.772 198.61 209.128 222.488 209.128Z" fill="#080717"/>
        <path d="M219.155 191.118C212.754 191.016 207.297 189.06 205.869 186.357C204.631 183.999 205.869 180.073 207.634 179.092C208.367 178.689 209.099 178.916 211.194 179.583C215.061 180.798 226.436 184.211 228.706 180.879C229.132 180.172 229.384 179.373 229.439 178.55C229.57 170.112 219.705 170.112 211.86 166.831C204.741 163.85 202.983 145.811 214.058 141.526C221.184 138.779 228.772 141.987 234.565 146.99C234.892 147.277 235.126 147.654 235.238 148.073C235.35 148.493 235.335 148.937 235.195 149.348C234.031 152.893 231.936 153.853 227.959 151.582C224.297 149.502 218.232 149.385 216.467 152.893C215.515 154.768 216.431 157.068 216.621 157.515C219.675 164.524 230.383 161.426 235.876 167.307C239.773 171.482 239.927 178.638 237.832 182.864C234.712 189.119 225.82 191.221 219.155 191.118Z" fill="white"/>
        <path d="M224.614 135.382L221.333 135.331C220.56 135.319 219.924 135.935 219.912 136.708L219.007 194.957C218.995 195.73 219.612 196.366 220.384 196.378L223.665 196.429C224.438 196.441 225.074 195.824 225.086 195.052L225.991 136.802C226.003 136.029 225.386 135.394 224.614 135.382Z" fill="white"/>
        <path d="M222.495 202.346C215.261 202.347 208.191 200.195 202.184 196.165C196.177 192.135 191.504 186.409 188.761 179.715C186.019 173.021 185.329 165.663 186.781 158.577C188.233 151.49 191.761 144.996 196.915 139.92C202.07 134.845 208.617 131.417 215.726 130.074C222.834 128.732 230.18 129.534 236.831 132.38C243.482 135.225 249.135 139.985 253.073 146.053C257.01 152.122 259.052 159.225 258.94 166.458C258.781 176.022 254.873 185.142 248.057 191.854C241.24 198.567 232.061 202.334 222.495 202.346ZM222.495 130.906C215.599 130.909 208.858 132.951 203.118 136.774C197.379 140.597 192.897 146.03 190.236 152.392C187.575 158.754 186.853 165.761 188.162 172.531C189.47 179.302 192.75 185.535 197.59 190.448C202.429 195.361 208.613 198.733 215.363 200.143C222.114 201.552 229.13 200.935 235.531 198.37C241.932 195.804 247.432 191.404 251.34 185.722C255.249 180.041 257.391 173.331 257.498 166.436C257.571 161.792 256.72 157.18 254.992 152.869C253.264 148.558 250.695 144.634 247.435 141.327C244.175 138.019 240.288 135.395 236.002 133.605C231.717 131.816 227.117 130.898 222.473 130.906H222.495Z" fill="white"/>
        <path d="M128.005 136.348C128.005 136.348 120.85 129.624 125.076 124.871C129.302 120.117 133.418 123.655 133.77 124.871C134.121 126.087 133.887 127.537 135.505 127.42C137.124 127.302 138.75 118.843 145.188 116.755C151.626 114.668 155.273 108.757 155.273 108.757C155.273 108.757 165.051 110.515 168.684 118.33C168.684 118.33 175.21 119.539 177.876 113.049C180.542 106.56 172.573 97.2804 167.878 96.6724C163.184 96.0645 162.92 99.4556 162.92 99.4556C162.92 99.4556 143.342 89.2823 125.142 97.4122C106.941 105.542 105.769 133.118 112.148 143.782C118.528 154.446 124.446 154.094 127.346 151.201C130.247 148.308 129.587 137.637 129.587 137.637L128.005 136.348Z" fill="#080717"/>
        <path d="M148.03 221.235C147.836 221.235 147.649 221.158 147.512 221.021C147.375 220.883 147.297 220.697 147.297 220.503L148.521 191.118C148.521 190.924 148.598 190.738 148.735 190.6C148.872 190.463 149.059 190.386 149.253 190.386C149.447 190.386 149.633 190.463 149.771 190.6C149.908 190.738 149.985 190.924 149.985 191.118L148.762 220.503C148.762 220.697 148.685 220.883 148.548 221.021C148.41 221.158 148.224 221.235 148.03 221.235Z" fill="white"/>
        <path d="M166.875 228.516C166.77 228.517 166.667 228.495 166.571 228.452C166.475 228.41 166.39 228.347 166.32 228.269C166.251 228.19 166.199 228.098 166.168 227.998C166.138 227.897 166.129 227.792 166.143 227.688C166.223 227.066 168.135 212.358 171.929 208.228C171.992 208.15 172.07 208.085 172.158 208.039C172.247 207.992 172.344 207.964 172.444 207.957C172.544 207.949 172.644 207.962 172.739 207.995C172.834 208.028 172.921 208.08 172.994 208.148C173.068 208.216 173.127 208.298 173.168 208.389C173.209 208.481 173.23 208.58 173.231 208.68C173.232 208.78 173.213 208.879 173.174 208.971C173.135 209.064 173.078 209.147 173.005 209.216C169.534 213.01 167.615 227.725 167.6 227.871C167.579 228.049 167.493 228.212 167.36 228.331C167.226 228.449 167.054 228.515 166.875 228.516Z" fill="white"/>
        <path d="M287.307 248.357C287.175 248.357 287.046 248.322 286.933 248.255C286.819 248.188 286.726 248.092 286.663 247.976C282.312 239.985 281.638 230.72 286.494 222.788L287.227 218.357C287.258 218.163 287.365 217.989 287.524 217.873C287.683 217.758 287.882 217.711 288.076 217.742C288.27 217.773 288.444 217.88 288.56 218.039C288.675 218.198 288.722 218.397 288.691 218.591C287.886 223.564 287.959 223.257 287.849 223.44C283.213 230.911 283.843 239.663 287.988 247.273C288.051 247.387 288.082 247.517 288.078 247.647C288.075 247.778 288.036 247.905 287.966 248.015C287.897 248.126 287.799 248.216 287.683 248.276C287.567 248.336 287.437 248.364 287.307 248.357Z" fill="white"/>
        <path d="M113.657 306.782C113.543 306.786 113.429 306.763 113.325 306.715C113.221 306.667 113.129 306.595 113.058 306.506C112.987 306.416 112.938 306.311 112.915 306.198C112.891 306.086 112.895 305.97 112.925 305.859C118.264 285.82 117.913 286.956 118.125 286.743L126.775 278.32C126.914 278.184 127.101 278.109 127.295 278.111C127.49 278.113 127.675 278.192 127.811 278.331C127.947 278.47 128.022 278.657 128.02 278.852C128.018 279.046 127.939 279.232 127.8 279.368L119.326 287.688L114.368 306.277C114.319 306.426 114.224 306.556 114.096 306.647C113.968 306.738 113.814 306.785 113.657 306.782Z" fill="white"/>
        <path d="M322.998 211.274C320.435 208.154 316.831 206.631 313.594 205.84C311.054 206.52 308.669 207.684 306.57 209.268C299.832 214.395 298.513 222.51 296.909 228.794C294.319 238.515 290.133 247.74 284.524 256.091C247.324 247.302 237.729 245.105 237.839 245.105C229.827 240.256 227.651 235.95 220.994 234.397C220.049 234.177 218.796 233.958 218.298 234.573C217.302 235.854 221.001 239.026 220.129 240.828C219.126 242.908 212.585 242.161 207.869 240.916C200.303 238.931 195.842 235.254 194.216 236.829C193.586 237.451 193.726 238.542 193.784 239.026C194.626 245.53 220.1 255.872 227.659 258.882C228.142 258.882 243.428 268.469 267.59 274.995C278.701 278.005 284.37 279.492 290.295 278.306C316.846 272.93 335.669 226.626 322.998 211.274Z" fill="white"/>
        <path d="M286.091 279.441C281.199 279.441 275.742 277.976 267.407 275.698C253.465 271.912 240.023 266.478 227.366 259.512C212.139 253.499 193.843 245.068 193.066 239.084C193 238.557 192.817 237.166 193.718 236.294C195.857 234.214 200.12 238.103 208.059 240.198C213.625 241.663 218.848 241.794 219.478 240.498C219.749 239.927 219.053 238.733 218.489 237.773C217.756 236.47 216.943 235.122 217.756 234.111C218.569 233.101 219.895 233.379 221.191 233.679C228.062 235.276 230.266 239.604 238.176 244.409L284.246 255.271C289.655 247.091 293.709 238.091 296.25 228.618C298.052 221.675 299.399 213.867 306.174 208.696C308.348 207.054 310.817 205.846 313.447 205.137C313.57 205.107 313.698 205.107 313.821 205.137C318.076 206.177 321.372 208.066 323.613 210.813C337.808 228.069 314.077 279.441 286.091 279.441ZM227.908 258.157C240.516 265.088 253.903 270.497 267.788 274.27C279.229 277.368 284.524 278.665 290.127 277.566C316.135 272.314 334.731 226.619 322.463 211.721C320.457 209.282 317.483 207.554 313.63 206.594C311.248 207.256 309.011 208.362 307.039 209.853C301.26 214.248 299.626 220.92 298.191 226.794C295.64 237.389 291.226 247.445 285.154 256.494C285.071 256.618 284.952 256.714 284.814 256.769C284.675 256.824 284.523 256.836 284.377 256.802C234.236 244.988 237.642 245.815 237.502 245.713C229.468 240.857 227.285 236.572 220.84 235.107C219.177 234.727 218.914 234.99 218.884 235.02C218.708 235.254 219.412 236.484 219.756 237.041C220.532 238.367 221.411 239.868 220.796 241.15C219.163 244.534 208.857 241.934 207.693 241.626C200.859 239.832 195.791 236.338 194.736 237.356C194.363 237.722 194.48 238.586 194.517 238.909C195.037 242.893 207.517 250.093 227.908 258.157Z" fill="#090817"/>
        <path d="M313.074 204.214C313.074 204.214 304.285 206.821 300.117 211.868C295.95 216.914 289.775 242.988 289.775 242.988L318.933 263.394C318.933 263.394 333.845 231.863 330.571 218.877C327.297 205.891 313.074 204.214 313.074 204.214Z" fill="#F7B318"/>
        <path d="M316.553 260.237C316.405 260.237 316.261 260.192 316.139 260.108C316.018 260.024 315.924 259.905 315.871 259.768C315.818 259.63 315.808 259.479 315.842 259.336C315.876 259.192 315.953 259.062 316.062 258.962C320.186 255.234 330.271 232.83 330.374 232.595C330.46 232.43 330.607 232.305 330.783 232.244C330.96 232.184 331.152 232.192 331.322 232.269C331.492 232.346 331.627 232.484 331.698 232.656C331.77 232.829 331.773 233.022 331.707 233.196C331.289 234.133 321.394 256.113 317.058 260.046C316.92 260.172 316.739 260.24 316.553 260.237Z" fill="white"/>
        <path d="M291.335 244.819C291.224 244.822 291.114 244.799 291.012 244.753C290.911 244.706 290.822 244.637 290.751 244.551C290.68 244.465 290.63 244.364 290.605 244.256C290.579 244.147 290.578 244.034 290.603 243.926C290.881 242.666 297.51 212.93 308.701 208.447C308.791 208.411 308.886 208.394 308.982 208.395C309.079 208.396 309.174 208.417 309.262 208.455C309.351 208.493 309.431 208.548 309.498 208.617C309.565 208.686 309.618 208.768 309.653 208.857C309.689 208.947 309.707 209.042 309.705 209.139C309.704 209.235 309.684 209.33 309.646 209.418C309.608 209.507 309.552 209.587 309.483 209.654C309.414 209.721 309.333 209.774 309.243 209.809C298.77 214.006 292.104 243.94 292.039 244.233C292.005 244.396 291.918 244.543 291.79 244.65C291.662 244.756 291.502 244.816 291.335 244.819Z" fill="white"/>
        <path d="M137.695 161.133C134.033 160.239 130.203 156.196 130.041 156.006C129.973 155.938 129.918 155.857 129.881 155.768C129.844 155.678 129.825 155.583 129.825 155.486C129.825 155.389 129.844 155.294 129.881 155.204C129.918 155.115 129.973 155.034 130.041 154.966C130.179 154.83 130.364 154.753 130.558 154.753C130.751 154.753 130.937 154.83 131.074 154.966C131.074 155.01 134.788 158.87 138.01 159.653C138.206 159.695 138.378 159.813 138.487 159.981C138.596 160.15 138.634 160.354 138.593 160.551C138.551 160.747 138.433 160.918 138.264 161.028C138.096 161.137 137.891 161.175 137.695 161.133Z" fill="#080717"/>
        <path d="M129.543 133.791C129.436 133.792 129.33 133.768 129.232 133.723C129.135 133.677 129.048 133.61 128.98 133.528C126.885 131.001 127.317 128.723 129.397 127.229L126.394 125.764C126.235 125.671 126.116 125.52 126.063 125.343C126.01 125.166 126.026 124.975 126.107 124.809C126.189 124.643 126.33 124.514 126.503 124.448C126.676 124.382 126.867 124.384 127.039 124.453L131.301 126.541C131.429 126.604 131.535 126.703 131.607 126.826C131.679 126.949 131.714 127.09 131.707 127.232C131.7 127.374 131.651 127.512 131.568 127.627C131.484 127.742 131.368 127.83 131.235 127.881C131.235 127.881 129.478 128.555 129.133 129.866C128.921 130.649 129.251 131.565 130.107 132.598C130.194 132.705 130.249 132.834 130.266 132.971C130.282 133.108 130.26 133.247 130.201 133.372C130.142 133.497 130.049 133.602 129.933 133.676C129.816 133.751 129.681 133.791 129.543 133.791Z" fill="#080717"/>
        <path d="M304.687 192.004C304.493 192.029 304.297 191.975 304.143 191.855C303.988 191.734 303.888 191.558 303.863 191.363C303.839 191.169 303.893 190.973 304.013 190.819C304.133 190.664 304.31 190.564 304.504 190.54C304.504 190.54 306.951 189.917 309.148 189.155C309.239 189.124 309.335 189.11 309.431 189.115C309.527 189.121 309.621 189.145 309.708 189.187C309.795 189.229 309.872 189.287 309.937 189.359C310.001 189.431 310.05 189.515 310.082 189.606C310.113 189.697 310.127 189.793 310.122 189.889C310.116 189.985 310.092 190.079 310.05 190.166C310.008 190.253 309.95 190.33 309.878 190.394C309.806 190.458 309.722 190.508 309.631 190.54C308.672 190.906 305.098 192.004 304.687 192.004Z" fill="#080717"/>
        <path d="M315.33 173.994C315.195 173.993 315.064 173.956 314.95 173.886C314.835 173.816 314.742 173.715 314.681 173.596C314.62 173.476 314.593 173.342 314.602 173.209C314.612 173.075 314.658 172.946 314.736 172.837C315.374 171.951 315.586 171.218 315.374 170.64C315.051 169.805 313.799 169.365 313.345 169.263C313.187 169.229 313.044 169.145 312.94 169.022C312.835 168.899 312.773 168.745 312.765 168.584C312.757 168.423 312.802 168.263 312.893 168.13C312.985 167.998 313.118 167.899 313.271 167.849L318.845 166.025C318.938 165.991 319.036 165.976 319.134 165.981C319.233 165.986 319.329 166.011 319.418 166.054C319.506 166.096 319.585 166.157 319.65 166.231C319.715 166.305 319.764 166.392 319.795 166.485C319.825 166.579 319.836 166.678 319.828 166.776C319.819 166.874 319.791 166.97 319.745 167.056C319.699 167.143 319.635 167.22 319.559 167.282C319.482 167.344 319.394 167.39 319.299 167.417L315.535 168.655C317.073 169.717 317.512 171.475 315.923 173.672C315.857 173.769 315.769 173.849 315.666 173.905C315.562 173.961 315.447 173.992 315.33 173.994Z" fill="#080717"/>
        <path d="M296.755 171.929C298.899 171.929 300.637 170.768 300.637 169.336C300.637 167.904 298.899 166.743 296.755 166.743C294.612 166.743 292.874 167.904 292.874 169.336C292.874 170.768 294.612 171.929 296.755 171.929Z" fill="#F7B318"/>
        <path d="M149.968 137.773C150.279 136.292 148.629 134.692 146.282 134.198C143.934 133.704 141.779 134.504 141.468 135.984C141.156 137.465 142.807 139.065 145.154 139.559C147.501 140.053 149.657 139.253 149.968 137.773Z" fill="#F7B318"/>
        <path d="M134.209 116.631C133.66 116.631 133.088 116.631 132.495 116.558C132.399 116.55 132.305 116.523 132.22 116.478C132.134 116.434 132.058 116.373 131.995 116.299C131.933 116.225 131.886 116.14 131.857 116.048C131.828 115.956 131.817 115.859 131.825 115.763C131.833 115.667 131.86 115.573 131.905 115.488C131.949 115.402 132.01 115.326 132.084 115.263C132.157 115.201 132.243 115.154 132.335 115.125C132.427 115.096 132.523 115.085 132.62 115.093C141.409 115.825 144.939 110.127 145.071 109.885C145.113 109.792 145.174 109.708 145.251 109.64C145.327 109.572 145.417 109.521 145.515 109.489C145.613 109.458 145.716 109.448 145.817 109.459C145.919 109.47 146.018 109.502 146.106 109.554C146.195 109.605 146.272 109.675 146.332 109.758C146.392 109.841 146.434 109.936 146.455 110.036C146.476 110.136 146.476 110.24 146.454 110.34C146.433 110.44 146.391 110.535 146.331 110.618C146.191 110.896 142.698 116.631 134.209 116.631Z" fill="white"/>
        <path d="M131.492 111.152C130.422 111.152 129.243 111.108 127.976 110.991C127.783 110.974 127.604 110.882 127.479 110.733C127.354 110.585 127.293 110.393 127.31 110.2C127.326 110.007 127.419 109.828 127.567 109.703C127.716 109.578 127.907 109.517 128.101 109.534C135.652 110.2 139.512 108.457 139.548 108.442C139.636 108.399 139.731 108.374 139.828 108.368C139.925 108.362 140.022 108.376 140.114 108.408C140.206 108.44 140.291 108.491 140.363 108.556C140.435 108.621 140.494 108.7 140.535 108.788C140.576 108.876 140.6 108.972 140.604 109.069C140.608 109.166 140.592 109.263 140.559 109.354C140.525 109.446 140.473 109.529 140.406 109.6C140.34 109.671 140.26 109.728 140.171 109.768C140.032 109.863 137.153 111.152 131.492 111.152Z" fill="white"/>
        <path d="M170.925 113.811C170.778 113.809 170.635 113.763 170.515 113.679C170.394 113.595 170.302 113.476 170.25 113.338C170.197 113.201 170.188 113.051 170.222 112.908C170.256 112.765 170.333 112.635 170.442 112.537C171.053 112.035 171.552 111.411 171.906 110.704C172.261 109.998 172.463 109.225 172.5 108.435C172.61 104.846 169.277 101.426 169.248 101.389C169.109 101.251 169.031 101.064 169.03 100.868C169.029 100.672 169.106 100.484 169.244 100.345C169.382 100.207 169.57 100.128 169.765 100.127C169.961 100.127 170.149 100.204 170.288 100.342C170.442 100.503 174.089 104.238 173.95 108.464C173.908 109.45 173.66 110.415 173.221 111.299C172.782 112.182 172.162 112.963 171.401 113.591C171.275 113.721 171.106 113.799 170.925 113.811Z" fill="white"/>
        <path d="M120.85 147.165C120.754 147.163 120.66 147.143 120.571 147.107C114.602 144.668 112.009 132.041 111.907 131.506C111.888 131.41 111.888 131.311 111.908 131.215C111.927 131.119 111.966 131.028 112.02 130.947C112.075 130.865 112.145 130.796 112.227 130.741C112.309 130.687 112.4 130.65 112.496 130.631C112.593 130.612 112.691 130.613 112.787 130.632C112.884 130.652 112.975 130.69 113.056 130.745C113.137 130.799 113.207 130.869 113.261 130.951C113.315 131.033 113.353 131.124 113.372 131.221C113.372 131.338 115.906 143.606 121.157 145.752C121.32 145.815 121.454 145.934 121.536 146.088C121.619 146.242 121.644 146.42 121.607 146.59C121.57 146.76 121.473 146.912 121.334 147.017C121.195 147.123 121.024 147.175 120.85 147.165Z" fill="white"/>
        <path d="M281.514 151.707C281.514 151.707 278.035 139.6 283.945 132.436C289.856 125.273 298.381 129.272 298.381 129.272C298.381 129.272 322.896 123.127 334.021 136.113C345.146 149.099 338.196 161.155 347.937 169.958C357.678 178.762 342.81 187.874 350.698 198.04C358.586 208.206 339.456 220.4 339.456 220.4C339.456 220.4 335.061 205.701 327.063 205.84C319.065 205.979 316.157 209.282 311.748 200.178C307.339 191.074 314.209 177.092 314.209 177.092C314.209 177.092 321.16 174.895 321.035 167.615C320.911 160.334 314.209 164.568 312.554 165.879C310.898 167.19 306.907 165.959 308.994 157.822C311.082 149.685 293.701 155.53 293.701 138.838C293.701 138.838 284.465 143.013 281.514 151.707Z" fill="#080717"/>
        <path d="M283.601 144.031C283.5 144.031 283.4 144.01 283.307 143.97C283.214 143.93 283.13 143.87 283.061 143.796C282.992 143.722 282.94 143.634 282.907 143.538C282.874 143.442 282.861 143.341 282.869 143.24C282.869 143.152 283.704 134.319 291.46 132.847C291.556 132.829 291.655 132.83 291.751 132.851C291.846 132.871 291.937 132.91 292.018 132.965C292.098 133.021 292.167 133.092 292.22 133.174C292.274 133.256 292.31 133.347 292.328 133.444C292.346 133.54 292.344 133.639 292.324 133.734C292.304 133.83 292.265 133.921 292.209 134.001C292.154 134.082 292.083 134.151 292.001 134.204C291.919 134.257 291.827 134.294 291.731 134.311C285.081 135.579 284.356 143.101 284.326 143.394C284.303 143.57 284.217 143.731 284.083 143.848C283.95 143.966 283.779 144.03 283.601 144.031Z" fill="white"/>
        <path d="M306.204 148.447C301.912 145.474 300.996 140.391 300.959 140.178C300.926 139.984 300.972 139.785 301.086 139.624C301.2 139.463 301.373 139.354 301.567 139.321C301.762 139.288 301.961 139.334 302.122 139.448C302.282 139.562 302.391 139.735 302.424 139.929C302.424 139.973 303.289 144.639 307.068 147.253C309.514 148.945 312.664 149.451 316.436 148.718C316.63 148.682 316.83 148.725 316.993 148.837C317.156 148.949 317.268 149.121 317.303 149.315C317.339 149.509 317.297 149.71 317.185 149.873C317.073 150.036 316.901 150.147 316.707 150.183C313.022 150.879 309.302 150.601 306.204 148.447Z" fill="white"/>
        <path d="M315.952 145.891C314.3 144.779 312.82 143.432 311.558 141.892C311.453 141.738 311.411 141.549 311.441 141.365C311.47 141.181 311.569 141.015 311.716 140.901C311.864 140.787 312.049 140.734 312.235 140.752C312.42 140.77 312.592 140.858 312.715 140.998C312.773 141.079 318.992 148.901 326.396 146.433C326.49 146.393 326.59 146.372 326.692 146.372C326.794 146.373 326.894 146.394 326.987 146.436C327.08 146.477 327.163 146.538 327.231 146.613C327.299 146.688 327.351 146.777 327.383 146.873C327.415 146.97 327.427 147.072 327.418 147.173C327.408 147.274 327.378 147.372 327.328 147.461C327.279 147.55 327.212 147.627 327.131 147.689C327.05 147.75 326.957 147.794 326.858 147.817C323.086 149.07 319.336 148.132 315.952 145.891Z" fill="white"/>
        <path d="M317.82 199.636C313.704 194.7 315.747 184.834 315.835 184.416C315.847 184.316 315.88 184.219 315.932 184.131C315.984 184.044 316.053 183.969 316.136 183.909C316.218 183.85 316.312 183.809 316.411 183.788C316.511 183.767 316.613 183.767 316.713 183.788C316.812 183.809 316.906 183.851 316.988 183.91C317.071 183.969 317.14 184.044 317.192 184.132C317.244 184.219 317.277 184.316 317.289 184.417C317.301 184.517 317.292 184.62 317.263 184.717C317.263 184.812 315.286 194.311 318.948 198.699C320.237 200.237 322.031 200.955 324.456 200.896C324.65 200.896 324.836 200.973 324.973 201.11C325.111 201.248 325.188 201.434 325.188 201.628C325.188 201.823 325.111 202.009 324.973 202.146C324.836 202.284 324.65 202.361 324.456 202.361C321.87 202.419 319.519 201.665 317.82 199.636Z" fill="white"/>
        <path d="M326.067 197.6C322.646 194.15 323.73 188.489 323.73 188.232C323.768 188.042 323.879 187.874 324.039 187.766C324.2 187.658 324.397 187.617 324.587 187.654C324.778 187.691 324.945 187.802 325.054 187.963C325.162 188.123 325.203 188.32 325.166 188.511C325.166 188.562 324.207 193.638 327.085 196.567C329.026 198.523 332.3 199.094 336.819 198.267C337.009 198.232 337.205 198.275 337.364 198.384C337.524 198.494 337.633 198.662 337.668 198.853C337.703 199.043 337.66 199.239 337.551 199.398C337.441 199.557 337.273 199.667 337.083 199.702C333.208 200.435 328.857 200.398 326.067 197.6Z" fill="white"/>
        <path d="M271.604 243.003C271.42 243.004 271.242 242.935 271.106 242.81C270.97 242.685 270.886 242.513 270.872 242.329C270.872 242.014 270.308 234.566 272.761 230.266C272.809 230.183 272.873 230.109 272.95 230.05C273.026 229.991 273.114 229.948 273.207 229.923C273.3 229.898 273.397 229.891 273.493 229.904C273.589 229.916 273.681 229.947 273.765 229.995C273.848 230.043 273.922 230.107 273.981 230.184C274.04 230.26 274.083 230.348 274.108 230.441C274.133 230.534 274.14 230.631 274.127 230.727C274.115 230.823 274.084 230.915 274.036 230.999C271.838 234.91 272.329 242.153 272.329 242.227C272.335 242.326 272.321 242.425 272.287 242.519C272.253 242.612 272.201 242.698 272.133 242.771C272.065 242.843 271.984 242.901 271.893 242.941C271.802 242.981 271.703 243.002 271.604 243.003Z" fill="#080717"/>
        <path d="M287.6 270.154C287.498 270.154 287.397 270.132 287.304 270.09C287.21 270.049 287.127 269.988 287.058 269.912C280.898 263.21 283.755 256.106 283.879 255.813C283.965 255.652 284.107 255.529 284.278 255.467C284.45 255.405 284.638 255.41 284.806 255.479C284.974 255.549 285.111 255.679 285.189 255.843C285.266 256.008 285.28 256.195 285.227 256.37C285.11 256.655 282.642 262.961 288.157 268.923C288.255 269.029 288.32 269.161 288.343 269.304C288.366 269.446 288.347 269.592 288.287 269.724C288.228 269.855 288.131 269.966 288.009 270.042C287.886 270.119 287.744 270.158 287.6 270.154Z" fill="#080717"/>
    </g>
    <defs>
        <clipPath id="clip0_1400_7293">
            <rect width="375" height="375" fill="white"/>
        </clipPath>
    </defs>
</svg>
