<svg width="320" height="117" viewBox="0 0 320 117" fill="none" xmlns="http://www.w3.org/2000/svg">
    <path d="M71.1526 66.3944C68.5671 71.452 64.9175 75.1857 60.2068 77.5986C55.2648 79.899 50.5537 81.046 46.0724 81.046C40.44 81.046 35.3255 79.6673 30.7308 76.9093C26.1331 74.1509 22.5133 70.1864 19.8709 65.0151C17.2263 59.9597 15.906 54.0425 15.906 47.2605C15.906 40.4814 17.1991 34.6207 19.785 29.6784C22.3705 24.7383 26.0171 21.0593 30.7308 18.6463C34.9808 16.4646 39.6942 15.3712 44.8652 15.3712C50.1496 15.3712 55.0625 16.6368 59.6033 19.1635C64.1415 21.6925 67.7915 25.1967 70.5491 29.6784C73.5366 34.7364 75.0312 40.9417 75.0312 48.2944C75.0312 55.3059 73.7381 61.3383 71.1526 66.3944ZM68.6637 6.75915C61.8524 2.96492 54.1486 1.06539 45.5526 1.06539C37.0663 1.06539 29.3629 3.04858 22.4415 7.01048C15.5175 10.9746 10.0486 16.5301 6.02874 23.6738C2.00958 30.8202 0 39.0262 0 48.2918C0 57.8955 2.00958 66.3245 6.02874 73.5802C10.0486 80.8396 15.7424 86.3084 23.1111 89.9933C30.0326 93.6771 37.3466 95.519 45.0499 95.519C53.7586 95.519 61.601 93.4834 68.5801 89.4063C75.5562 85.3328 81.0566 79.6097 85.0758 72.241C88.9826 64.9842 90.9376 56.7235 90.9376 47.4549C90.9376 38.4113 88.9826 30.3179 85.0758 23.1715C81.1666 16.0277 75.6975 10.5563 68.6637 6.75915Z" fill="white"/>
    <path d="M202.785 94.0949C202.785 94.0949 202.701 94.0001 202.57 93.8492C200.467 92.2965 199.097 89.8081 199.097 86.9939V9.92378C199.097 4.98441 195.093 0.980492 190.154 0.980492H183.693L180.706 0.980125C179.971 0.980125 179.557 1.82336 180.006 2.40449C180.006 2.40449 180.09 2.4993 180.221 2.65063C182.323 4.20289 183.693 6.69061 183.693 9.50439V86.576C183.693 91.515 187.697 95.5193 192.637 95.5193H199.097H202.085C202.819 95.5193 203.234 94.676 202.785 94.0949Z" fill="white"/>
    <path d="M180.971 93.849C178.869 92.2964 177.499 89.8083 177.499 86.9942V40.1685C177.499 35.2291 173.495 31.2252 168.556 31.2252H161.593H158.605C157.871 31.2252 157.457 32.0685 157.905 32.6496C157.905 32.6496 157.99 32.7444 158.121 32.8954C160.224 34.448 161.593 36.9361 161.593 39.7502V86.5759C161.593 91.5152 165.597 95.5192 170.537 95.5192H177.499H180.487C181.221 95.5192 181.635 94.6759 181.186 94.0948C181.186 94.0948 181.102 94 180.971 93.849Z" fill="white"/>
    <path d="M159.191 93.849C157.217 92.392 155.89 90.1102 155.735 87.5087C155.734 87.4972 155.734 87.4853 155.734 87.4738V59.8561C155.734 53.7188 155.148 48.8054 153.976 45.122C152.804 41.4386 150.766 38.3147 147.864 35.7459C144.403 32.7318 139.268 31.2252 132.461 31.2252C125.396 31.2252 120.606 31.8316 113.356 35.2615C113.078 35.3927 112.757 35.1927 112.757 34.8852V31.6431C112.757 31.4122 112.57 31.2252 112.339 31.2252H96.7975H93.8094C93.0754 31.2252 92.6609 32.0685 93.1096 32.6496C93.1096 32.6496 93.1944 32.7444 93.3253 32.8954C95.4278 34.448 96.7975 36.9361 96.7975 39.7502V86.5759C96.7975 91.5152 100.801 95.5192 105.741 95.5192H112.692H112.704H115.68C116.414 95.5192 116.828 94.6759 116.379 94.0948C116.379 94.0948 116.295 94 116.164 93.849C114.159 92.3685 112.823 90.0359 112.704 87.3819V48.598C112.704 48.4214 112.817 48.2622 112.983 48.2024C119.326 45.9258 124.423 44.7874 128.275 44.7874C132.068 44.7874 134.943 45.9329 136.898 48.2195C138.849 50.5087 139.828 53.7188 139.828 57.8472V86.5759C139.828 91.5152 143.832 95.5192 148.771 95.5192H155.719H155.734H158.706C159.441 95.5192 159.855 94.6759 159.406 94.0948C159.406 94.0948 159.322 94 159.191 93.849Z" fill="white"/>
    <path d="M164.305 21.8617C162.782 20.3395 162.022 18.5214 162.022 16.4062C162.022 14.2082 162.782 12.3685 164.305 10.888C165.827 9.40896 167.645 8.66759 169.76 8.66759C171.959 8.66759 173.798 9.40896 175.279 10.888C176.758 12.3685 177.499 14.2082 177.499 16.4062C177.499 18.5214 176.758 20.3395 175.279 21.8617C173.798 23.3842 171.959 24.1453 169.76 24.1453C167.645 24.1453 165.827 23.3842 164.305 21.8617Z" fill="#F7B318"/>
    <path d="M273.643 50.4831C276.275 47.38 276.227 43.4821 273.52 40.4125L263.14 28.6454L242.017 4.459L239.156 1.18307C238.5 0.431297 237.551 0 236.553 0H223.483C222.28 0 221.641 1.42028 222.438 2.32079L258.371 42.8779C259.954 44.6647 260.345 47.2934 258.776 49.0858L201.607 114.306C200.694 115.36 201.443 117 202.838 117H212.679C213.617 117 214.512 116.601 215.139 115.903L269.458 55.4172L273.643 50.4831Z" fill="#F7B318"/>
    <path d="M319.145 92.2014L290.01 59.148C289.979 59.1127 282.842 51.3145 282.842 51.3145C282.35 50.7698 281.508 50.7275 280.964 51.2205L279.165 52.8467C275.391 56.2602 275.098 62.0867 278.511 65.8612L280.431 67.9835L303.197 94.2452C303.3 94.3653 303.451 94.4344 303.609 94.4344H318.132C319.289 94.4344 319.907 93.0718 319.145 92.2014Z" fill="#F7B318"/>
    <path d="M316.672 2.23305L290.075 32.2347C290.044 32.2701 282.907 40.0678 282.907 40.0678C282.414 40.6129 281.573 40.6549 281.028 40.1623L279.23 38.5356C275.455 35.1225 275.586 29.6689 279 25.8948L280.919 23.7726L301.473 0.554001C301.576 0.43391 301.726 0.364754 301.884 0.364754L315.659 1.90735e-05C316.816 1.90735e-05 317.434 1.36267 316.672 2.23305Z" fill="#F7B318"/>
</svg>
