<svg width="375" height="375" viewBox="0 0 375 375" fill="none" xmlns="http://www.w3.org/2000/svg">
    <g clip-path="url(#clip0_1400_7131)">
        <g opacity="0.2">
            <path d="M291.079 293.08C348.285 235.874 348.285 143.125 291.079 85.9197C233.874 28.714 141.125 28.714 83.9192 85.9197C26.7135 143.125 26.7135 235.874 83.9192 293.08C141.125 350.286 233.874 350.286 291.079 293.08Z" fill="#F7B318"/>
        </g>
        <path d="M311.089 39.0161H181.853C180.045 39.0161 178.579 40.4819 178.579 42.29V127.515C178.579 129.323 180.045 130.789 181.853 130.789H311.089C312.897 130.789 314.363 129.323 314.363 127.515V42.29C314.363 40.4819 312.897 39.0161 311.089 39.0161Z" fill="white"/>
        <path d="M311.082 131.521H181.853C181.327 131.521 180.806 131.417 180.32 131.216C179.834 131.015 179.392 130.72 179.02 130.348C178.648 129.976 178.353 129.534 178.152 129.048C177.95 128.562 177.847 128.041 177.847 127.515V42.29C177.847 41.2275 178.269 40.2085 179.02 39.4571C179.771 38.7058 180.79 38.2837 181.853 38.2837H311.082C312.145 38.2837 313.165 38.7056 313.917 39.4567C314.67 40.2078 315.093 41.2268 315.095 42.29V127.515C315.093 128.578 314.67 129.597 313.917 130.348C313.165 131.099 312.145 131.521 311.082 131.521ZM181.853 39.7485C181.18 39.7505 180.534 40.0189 180.058 40.4951C179.582 40.9713 179.313 41.6166 179.312 42.29V127.515C179.312 128.189 179.579 128.835 180.056 129.312C180.533 129.788 181.179 130.056 181.853 130.056H311.082C311.416 130.057 311.747 129.992 312.056 129.865C312.366 129.738 312.647 129.55 312.883 129.314C313.12 129.078 313.308 128.798 313.436 128.489C313.564 128.18 313.63 127.849 313.63 127.515V42.29C313.628 41.6153 313.359 40.9689 312.881 40.4925C312.403 40.0161 311.756 39.7485 311.082 39.7485H181.853Z" fill="#090817"/>
        <path d="M193.433 48.5303C195.083 48.5303 196.421 47.1924 196.421 45.542C196.421 43.8916 195.083 42.5537 193.433 42.5537C191.782 42.5537 190.444 43.8916 190.444 45.542C190.444 47.1924 191.782 48.5303 193.433 48.5303Z" fill="#080717"/>
        <path d="M205.781 48.5303C207.432 48.5303 208.77 47.1924 208.77 45.542C208.77 43.8916 207.432 42.5537 205.781 42.5537C204.131 42.5537 202.793 43.8916 202.793 45.542C202.793 47.1924 204.131 48.5303 205.781 48.5303Z" fill="#080717"/>
        <path d="M218.123 48.5303C219.773 48.5303 221.111 47.1924 221.111 45.542C221.111 43.8916 219.773 42.5537 218.123 42.5537C216.472 42.5537 215.134 43.8916 215.134 45.542C215.134 47.1924 216.472 48.5303 218.123 48.5303Z" fill="#080717"/>
        <path d="M246.467 110.303C259.027 110.303 269.209 100.121 269.209 87.561C269.209 75.0011 259.027 64.8193 246.467 64.8193C233.907 64.8193 223.726 75.0011 223.726 87.561C223.726 100.121 233.907 110.303 246.467 110.303Z" fill="#080717"/>
        <path d="M237.73 98.3276C237.07 97.0825 237.73 95.017 238.652 94.5043C239.07 94.2773 239.495 94.4311 240.527 94.7607C242.563 95.3979 248.584 97.1923 249.741 95.4418C249.96 95.0686 250.09 94.6502 250.122 94.2187C250.188 89.7802 244.995 89.7802 240.857 88.0444C237.041 86.4477 236.257 76.9628 242.029 74.7363C245.779 73.2714 249.771 74.978 252.817 77.6074C252.99 77.7571 253.113 77.9551 253.172 78.1757C253.231 78.3963 253.222 78.6295 253.147 78.8452C252.532 80.7128 251.433 81.2182 249.346 80.0244C247.427 78.9257 244.219 78.8744 243.296 80.7128C243.146 81.103 243.076 81.5192 243.09 81.9368C243.104 82.3544 243.201 82.7651 243.376 83.1445C244.988 86.8066 250.62 85.2026 253.506 88.2714C255.557 90.4687 255.637 94.2333 254.531 96.4599C251.733 102.122 239.539 101.755 237.73 98.3276Z" fill="white"/>
        <path d="M247.341 71.4904L246.118 71.4714C245.572 71.4629 245.123 71.8987 245.114 72.4447L244.646 102.58C244.637 103.126 245.073 103.576 245.619 103.584L246.842 103.603C247.388 103.612 247.838 103.176 247.846 102.63L248.314 72.4944C248.323 71.9484 247.887 71.4989 247.341 71.4904Z" fill="white"/>
        <path d="M246.475 107.08C242.598 107.082 238.808 105.931 235.588 103.772C232.368 101.612 229.864 98.5438 228.394 94.9564C226.924 91.369 226.556 87.4253 227.335 83.6277C228.115 79.83 230.007 76.3504 232.771 73.632C235.535 70.9136 239.046 69.0795 242.856 68.3634C246.666 67.6473 250.603 68.0815 254.165 69.6108C257.728 71.14 260.754 73.6951 262.86 76.9506C264.965 80.206 266.053 84.0144 265.986 87.8906C265.932 93.0191 263.849 97.9174 260.192 101.514C256.536 105.11 251.603 107.111 246.475 107.08ZM246.475 69.4995C242.913 69.4984 239.43 70.5505 236.465 72.5234C233.499 74.4964 231.183 77.3021 229.808 80.5878C228.433 83.8735 228.06 87.4925 228.736 90.9896C229.412 94.4867 231.107 97.7058 233.608 100.242C236.109 102.778 239.304 104.519 242.791 105.244C246.278 105.969 249.902 105.648 253.207 104.319C256.511 102.99 259.349 100.714 261.364 97.7765C263.379 94.8391 264.48 91.3716 264.529 87.8101C264.56 85.4178 264.116 83.0433 263.222 80.824C262.328 78.6047 261.003 76.5849 259.323 74.8817C257.643 73.1785 255.642 71.8257 253.435 70.9018C251.228 69.9779 248.86 69.5013 246.467 69.4995H246.475Z" fill="white"/>
        <path d="M268.696 65.332C273.58 70.2291 276.716 76.5978 277.621 83.4548C278.525 90.3118 277.146 97.2757 273.699 103.271L277.031 106.604C281.21 99.914 283.077 92.0367 282.344 84.1829C281.611 76.329 278.32 68.9331 272.975 63.1317C267.63 57.3303 260.529 53.4446 252.761 52.0716C244.993 50.6987 236.99 51.9145 229.98 55.5321C229.674 55.6924 229.41 55.9226 229.209 56.2042C229.009 56.4857 228.878 56.8106 228.826 57.1524C228.775 57.4943 228.805 57.8434 228.914 58.1715C229.023 58.4995 229.207 58.7972 229.453 59.0405C229.82 59.4036 230.292 59.6421 230.802 59.7223C231.312 59.8025 231.834 59.7203 232.295 59.4872C238.207 56.5133 244.906 55.4774 251.44 56.5266C257.975 57.5758 264.012 60.6567 268.696 65.332Z" fill="#F7B318"/>
        <path d="M272.271 98.7012L270.161 110.347L281.404 107.842L272.271 98.7012Z" fill="#F7B318"/>
        <path d="M224.238 109.79C219.356 104.893 216.221 98.5261 215.317 91.6707C214.413 84.8153 215.79 77.8529 219.236 71.8579L215.903 68.5254C211.738 75.2142 209.882 83.0846 210.62 90.9295C211.358 98.7745 214.649 106.161 219.988 111.956C225.327 117.751 232.42 121.634 240.179 123.01C247.937 124.387 255.933 123.18 262.939 119.575C263.241 119.413 263.501 119.183 263.698 118.903C263.895 118.623 264.024 118.301 264.075 117.963C264.125 117.624 264.096 117.278 263.989 116.953C263.882 116.627 263.701 116.332 263.459 116.089C263.088 115.722 262.611 115.482 262.096 115.402C261.581 115.321 261.053 115.406 260.588 115.642C254.681 118.603 247.993 119.631 241.469 118.581C234.946 117.531 228.918 114.455 224.238 109.79Z" fill="#F7B318"/>
        <path d="M221.067 76.6553L223.169 65.0098L211.934 67.522L221.067 76.6553Z" fill="#F7B318"/>
        <path d="M156.006 306.321L171.123 237.129L112.705 224.121V193.77C117.656 193.564 124.08 193.477 129.17 193.477C150.872 193.477 189.668 194.883 205.708 204.265C226.289 216.313 200.955 291.57 192.524 313.843L156.006 306.321Z" fill="#080717"/>
        <path d="M158.555 297.942L149.949 324.661C149.949 324.661 168.333 334.709 175.107 335.588C181.882 336.467 200.5 335.588 200.5 335.588C200.5 335.588 199.036 325.591 188.65 323.416L195.337 303.801L158.555 297.942Z" fill="white"/>
        <path d="M175.049 336.321C168.215 335.427 150.388 325.715 149.634 325.334C149.485 325.253 149.37 325.122 149.307 324.964C149.244 324.806 149.238 324.632 149.29 324.47L157.896 297.744C157.949 297.578 158.061 297.436 158.21 297.345C158.359 297.253 158.536 297.218 158.709 297.246L195.491 303.105C195.596 303.122 195.697 303.162 195.785 303.221C195.874 303.281 195.948 303.359 196.003 303.451C196.058 303.542 196.093 303.644 196.104 303.75C196.116 303.857 196.104 303.964 196.069 304.065L189.639 322.917C199.695 325.503 201.248 335.413 201.262 335.515C201.277 335.616 201.27 335.719 201.242 335.817C201.215 335.915 201.167 336.006 201.102 336.085C201.037 336.163 200.957 336.227 200.866 336.273C200.775 336.319 200.675 336.345 200.574 336.35C194.824 336.592 180.718 337.061 175.049 336.321ZM150.879 324.309C153.94 325.95 169.321 334.094 175.247 334.863C181.055 335.596 195.93 335.054 199.658 334.9C199.037 332.227 197.658 329.79 195.688 327.881C193.717 325.971 191.238 324.67 188.547 324.133C188.445 324.113 188.349 324.071 188.265 324.01C188.18 323.949 188.11 323.871 188.058 323.781C188.006 323.691 187.973 323.591 187.963 323.488C187.953 323.384 187.965 323.28 187.998 323.181L194.407 304.387L159.104 298.762L150.879 324.309Z" fill="#090817"/>
        <path d="M234.229 112.91C234.111 112.551 233.716 111.299 232.69 110.918C230.325 110.046 228.164 114.646 219.807 117.81C223.301 113.723 223.748 112.383 223.403 111.951C222.671 111.072 217.705 113.84 213.882 117.114C211.938 118.931 210.305 121.054 209.048 123.398L174.001 155.889C174.001 155.889 143.657 136.663 137.424 127.588C131.191 118.513 118.11 117.188 118.11 117.188C115.679 129.5 117.971 141.848 123.501 151.23C129.978 156.441 136.797 161.21 143.914 165.505C158.752 174.441 166.172 178.909 174.727 177.598C184.248 176.133 190.789 168.992 199.49 159.456C206.868 151.261 213.05 142.063 217.852 132.136C222.942 130.884 227.761 125.222 230.303 122.205C235.21 116.455 234.426 113.525 234.229 112.91Z" fill="white"/>
        <path d="M171.79 178.521C164.165 178.521 156.76 174.06 143.54 166.069C136.389 161.761 129.538 156.975 123.032 151.743C122.966 151.686 122.91 151.62 122.864 151.546C117.188 141.921 114.939 129.368 117.385 116.99C117.421 116.81 117.523 116.65 117.67 116.542C117.818 116.433 118.001 116.384 118.184 116.404C118.733 116.463 131.631 117.935 137.959 127.178C143.621 135.403 169.973 152.483 173.848 154.966L208.403 122.937C209.689 120.555 211.357 118.4 213.34 116.558C215.266 114.917 222.327 109.57 223.931 111.482C224.487 112.141 224.355 113.159 222.239 115.921C228.369 112.918 230.295 109.241 232.903 110.208C233.403 110.435 233.843 110.776 234.189 111.203C234.535 111.63 234.776 112.132 234.895 112.669C235.342 114.082 235.422 117.254 230.852 122.615C228.274 125.647 223.528 131.243 218.32 132.7C213.529 142.581 207.365 151.734 200.01 159.888C191.968 168.75 183.53 178.521 171.79 178.521ZM124.065 150.689C130.484 155.849 137.24 160.576 144.287 164.839C158.936 173.672 166.318 178.11 174.609 176.836C183.896 175.408 190.21 168.494 198.94 158.928C206.28 150.79 212.423 141.648 217.185 131.777C217.232 131.681 217.3 131.597 217.384 131.53C217.467 131.463 217.564 131.415 217.668 131.389C222.524 130.195 227.234 124.666 229.768 121.692C234.163 116.565 233.752 113.84 233.525 113.137C232.668 110.457 231.248 111.672 229.021 113.35C226.327 115.524 223.303 117.255 220.063 118.477C219.911 118.537 219.742 118.545 219.584 118.498C219.426 118.451 219.289 118.352 219.194 118.218C219.099 118.083 219.053 117.921 219.062 117.756C219.07 117.592 219.134 117.436 219.243 117.312C221.821 114.295 222.517 113.027 222.7 112.529C221.462 112.72 217.756 114.727 214.321 117.656C212.441 119.412 210.862 121.466 209.648 123.735C209.561 123.889 212.117 121.494 174.492 156.401C174.374 156.513 174.222 156.582 174.06 156.598C173.899 156.614 173.736 156.576 173.599 156.489C172.354 155.698 143.064 137.073 136.809 127.984C131.631 120.454 121.428 118.359 118.726 117.927C116.543 129.749 118.733 141.592 124.065 150.711V150.689Z" fill="#090817"/>
        <path d="M129.829 112.639C145.568 112.639 158.328 99.8799 158.328 84.1406C158.328 68.4013 145.568 55.6421 129.829 55.6421C114.09 55.6421 101.331 68.4013 101.331 84.1406C101.331 99.8799 114.09 112.639 129.829 112.639Z" fill="white"/>
        <path d="M129.822 113.372C124.056 113.37 118.42 111.663 113.622 108.466C108.824 105.268 105.079 100.724 102.857 95.4031C100.636 90.0826 100.037 84.2239 101.137 78.5642C102.237 72.9044 104.986 67.6963 109.039 63.5951C113.091 59.4939 118.266 56.6827 123.912 55.5152C129.559 54.3477 135.424 54.8761 140.771 57.0338C146.117 59.1915 150.706 62.8822 153.961 67.6416C157.215 72.401 158.989 78.0165 159.06 83.7817C159.099 87.6487 158.371 91.4851 156.92 95.0696C155.469 98.6541 153.322 101.916 150.604 104.667C147.886 107.417 144.65 109.603 141.083 111.097C137.516 112.591 133.689 113.364 129.822 113.372ZM129.822 56.3745C124.315 56.3735 118.933 58.0098 114.359 61.0754C109.784 64.141 106.225 68.4974 104.133 73.591C102.041 78.6845 101.51 84.2851 102.609 89.6809C103.708 95.0767 106.386 100.024 110.303 103.894C114.221 107.764 119.2 110.381 124.609 111.414C130.018 112.447 135.611 111.848 140.679 109.694C145.747 107.54 150.059 103.927 153.069 99.3158C156.078 94.7045 157.649 89.3025 157.581 83.7964C157.467 76.5052 154.497 69.5497 149.309 64.4257C144.121 59.3017 137.128 56.4186 129.836 56.3965L129.822 56.3745Z" fill="#090817"/>
        <path d="M131.571 97.8675L115.555 95.6335L111.064 127.827L127.081 130.061L131.571 97.8675Z" fill="white"/>
        <path d="M127.075 130.788C126.987 130.788 128.005 130.928 110.962 128.547C110.77 128.52 110.596 128.418 110.479 128.262C110.363 128.107 110.312 127.912 110.339 127.72L114.829 95.5297C114.856 95.3388 114.958 95.1664 115.111 95.0499C115.265 94.9333 115.458 94.882 115.649 94.9071L131.667 97.1044C131.86 97.1316 132.033 97.2341 132.15 97.3893C132.267 97.5445 132.317 97.7397 132.29 97.932L127.8 130.159C127.776 130.333 127.689 130.493 127.555 130.609C127.422 130.725 127.252 130.788 127.075 130.788ZM111.892 127.2L126.453 129.228L130.737 98.4667L116.177 96.4305L111.892 127.2Z" fill="#090817"/>
        <path d="M75.9668 195.645C75.9668 195.645 90.4248 130.027 102.883 121.487C115.342 112.947 134.766 116.323 137.065 137.857C139.365 159.39 132.568 203.533 132.568 203.533L75.9668 195.645Z" fill="white"/>
        <path d="M132.568 204.265C132.488 204.265 134.766 204.587 75.8789 196.37C75.7784 196.356 75.6819 196.321 75.5954 196.268C75.509 196.215 75.4345 196.145 75.3766 196.062C75.3188 195.978 75.2789 195.884 75.2594 195.784C75.24 195.685 75.2414 195.582 75.2637 195.483C78.1934 182.3 91.0986 128.687 102.488 120.886C109.475 116.096 118.506 115.085 125.5 118.308C132.495 121.531 136.809 128.423 137.812 137.783C140.098 159.17 133.359 203.203 133.293 203.643C133.267 203.816 133.18 203.974 133.046 204.088C132.913 204.203 132.744 204.265 132.568 204.265ZM76.9043 195.029L131.99 202.712C132.847 196.926 138.494 157.647 136.384 137.937C135.439 129.111 131.367 122.607 124.915 119.627C118.462 116.646 109.863 117.59 103.271 122.095C91.9336 129.88 78.5303 187.639 76.853 195.029H76.9043Z" fill="#090817"/>
        <path d="M168.633 247.947C146.111 251.038 116.309 252.803 104.766 252.803C92.0874 252.803 85.0342 251.133 80.4419 247.031C67.6904 235.671 70.6787 211.406 75.4101 194.956C115.591 192.144 183.911 191.294 208.03 223.521C212.234 229.153 254.172 292.097 259.673 300.33L231.401 319.028L168.633 247.947Z" fill="#080717"/>
        <path d="M225.586 311.741C231.201 319.695 236.816 327.644 242.432 335.588L282.341 313.008C282.341 313.008 276.899 306.848 264.924 307.932L253.879 292.969L225.586 311.741Z" fill="white"/>
        <path d="M242.468 336.321C242.351 336.321 242.235 336.294 242.13 336.24C242.026 336.187 241.936 336.109 241.868 336.013L225.022 312.166C224.965 312.086 224.925 311.995 224.904 311.9C224.883 311.804 224.881 311.705 224.899 311.609C224.917 311.513 224.954 311.421 225.008 311.339C225.061 311.257 225.131 311.187 225.212 311.133L253.499 292.339C253.655 292.234 253.846 292.194 254.032 292.227C254.217 292.26 254.383 292.363 254.495 292.515L265.334 307.163C277.251 306.24 282.722 312.253 282.949 312.517C283.021 312.599 283.074 312.696 283.103 312.801C283.133 312.905 283.139 313.015 283.121 313.123C283.102 313.23 283.06 313.332 282.998 313.421C282.935 313.51 282.854 313.584 282.759 313.638C239.927 337.874 242.769 336.321 242.468 336.321ZM226.633 311.938L242.681 334.644L281.147 312.876C279.382 311.411 274.153 307.852 265.034 308.679C264.91 308.69 264.784 308.669 264.67 308.618C264.556 308.566 264.457 308.487 264.382 308.386L253.711 293.958L226.633 311.938Z" fill="#090817"/>
        <path d="M111.064 112.844L131.528 116.638L130.371 121.311C130.371 121.311 138.765 127.339 139.219 141.76C139.219 141.76 143.936 149.019 143.21 154.644C142.67 158.177 141.127 161.482 138.765 164.165L135.894 199.087L73.2422 183.604L101.536 125.068L109.739 117.136L111.064 112.844Z" fill="#F7B318"/>
        <path d="M118.11 117.188C118.11 117.188 98.4302 116.404 88.6304 127.646C78.8306 138.889 52.0019 171.152 59.6045 187.5C67.207 203.848 140.903 204.917 140.903 204.917C142.085 200.83 143.269 196.746 144.456 192.664C123.144 188.816 102.349 182.517 82.4853 173.892L106.78 136.707C106.78 136.707 107.666 136.062 118.11 117.188Z" fill="white"/>
        <path d="M140.867 205.627C137.842 205.576 66.6504 204.346 58.9453 187.786C51.7529 172.405 74.1138 143.166 88.081 127.126C93.2739 121.165 101.184 118.572 106.904 117.444C110.604 116.718 114.37 116.387 118.14 116.455C118.264 116.46 118.386 116.496 118.493 116.561C118.6 116.626 118.688 116.717 118.75 116.825C118.811 116.934 118.844 117.057 118.845 117.182C118.846 117.306 118.815 117.43 118.755 117.539C112.559 128.782 108.501 135.798 107.366 137.124L83.5547 173.577C98.7409 180.108 114.473 185.29 130.569 189.06C144.199 192.246 144.631 191.616 145.056 192.29C145.111 192.378 145.146 192.476 145.16 192.578C145.174 192.68 145.166 192.784 145.137 192.883L141.584 205.078C141.544 205.237 141.451 205.377 141.32 205.477C141.19 205.576 141.031 205.629 140.867 205.627ZM116.873 117.876C112.478 117.935 97.2583 118.821 89.187 128.093C57.1875 164.832 57.334 180.908 60.271 187.17C66.7822 201.123 125.039 203.826 140.332 204.148L143.503 193.22C122.417 189.341 101.84 183.075 82.1704 174.543C82.0719 174.501 81.9839 174.438 81.9126 174.358C81.8413 174.278 81.7884 174.183 81.7576 174.08C81.7269 173.978 81.7191 173.87 81.7347 173.764C81.7504 173.658 81.7891 173.556 81.8481 173.467C107.944 133.52 106.157 136.238 106.26 136.113C106.436 135.937 107.988 133.96 116.873 117.876Z" fill="#090817"/>
        <path d="M109.863 116.755C109.863 116.755 101.257 117.817 94.6655 121.685C94.6655 121.685 104.919 131.484 104.341 143.694L119.231 131.104L120.85 116.367L115.496 115.159L109.863 116.755Z" fill="#F7B318"/>
        <path d="M129.177 119.949C129.177 119.949 132.349 120.901 135.842 124.482C137.785 126.433 139.561 128.542 141.152 130.789C140.254 135.613 139.355 140.439 138.457 145.269L125.186 135.747L124.277 129.668L129.177 119.949Z" fill="#F7B318"/>
        <path d="M209.033 156.401L148.052 152.578C147.574 152.551 147.104 152.708 146.738 153.018C146.373 153.327 146.141 153.765 146.089 154.241L141.182 200.449H112.925C112.431 200.449 111.958 200.645 111.609 200.994C111.26 201.343 111.064 201.816 111.064 202.31V204.763C111.064 205.257 111.26 205.73 111.609 206.079C111.958 206.428 112.431 206.624 112.925 206.624H201.306C201.8 206.624 202.274 206.428 202.624 206.079C202.974 205.731 203.172 205.257 203.174 204.763C203.174 202.332 203.276 201.899 202.852 201.27C203.093 201.011 203.253 200.688 203.313 200.339L210.754 158.591C210.8 158.333 210.791 158.067 210.727 157.812C210.663 157.557 210.546 157.318 210.384 157.111C210.221 156.905 210.017 156.734 209.784 156.612C209.552 156.49 209.296 156.418 209.033 156.401Z" fill="white"/>
        <path d="M201.306 207.356H112.925C112.238 207.354 111.579 207.08 111.094 206.594C110.608 206.109 110.334 205.45 110.332 204.763V202.31C110.334 201.623 110.608 200.964 111.094 200.478C111.579 199.993 112.238 199.719 112.925 199.717H140.522L145.356 154.168C145.425 153.5 145.75 152.886 146.262 152.453C146.774 152.02 147.434 151.802 148.103 151.846L209.084 155.676C209.449 155.699 209.805 155.799 210.129 155.97C210.452 156.14 210.736 156.377 210.961 156.665C211.187 156.952 211.349 157.284 211.437 157.639C211.525 157.994 211.537 158.363 211.472 158.723C203.525 203.32 204.075 200.728 203.716 201.328C203.965 201.951 203.906 202.192 203.906 204.763C203.904 205.452 203.63 206.111 203.142 206.597C202.655 207.083 201.994 207.356 201.306 207.356ZM112.925 201.182C112.626 201.182 112.339 201.301 112.127 201.512C111.916 201.724 111.797 202.01 111.797 202.31V204.763C111.797 205.062 111.916 205.349 112.127 205.561C112.339 205.772 112.626 205.891 112.925 205.891H201.306C201.606 205.891 201.894 205.773 202.106 205.561C202.319 205.35 202.439 205.063 202.441 204.763C202.441 202.127 202.5 202.061 202.244 201.68C202.151 201.543 202.106 201.379 202.118 201.214C202.13 201.049 202.198 200.893 202.31 200.772C202.668 200.383 202.09 203.042 210.029 158.46C210.058 158.303 210.052 158.142 210.014 157.988C209.976 157.833 209.905 157.689 209.807 157.563C209.708 157.438 209.585 157.335 209.444 157.261C209.303 157.187 209.148 157.144 208.989 157.134L148.008 153.311C147.717 153.292 147.43 153.387 147.207 153.575C146.985 153.764 146.844 154.031 146.814 154.321L141.907 200.522C141.889 200.704 141.803 200.872 141.668 200.994C141.533 201.116 141.357 201.183 141.174 201.182H112.925Z" fill="#090817"/>
        <path d="M158.064 93.7939C158.811 90.2835 159.286 86.7207 159.485 83.1372C160.217 70.5029 149.714 59.8974 137.095 60.9667C132.265 61.3981 127.591 62.8993 123.413 65.3613C104.37 76.3476 103.528 95.1196 103.528 95.1196C103.528 95.1196 114.573 118.264 139.739 114.807C148.674 113.577 153.699 107.175 156.467 99.4262C157.215 99.638 158.016 99.5439 158.695 99.1648C159.374 98.7857 159.874 98.1526 160.085 97.4047C160.297 96.6569 160.203 95.8555 159.824 95.177C159.445 94.4984 158.812 93.9983 158.064 93.7866V93.7939Z" fill="white"/>
        <path d="M134.766 115.884C112.925 115.884 103 95.6543 102.898 95.4346C102.848 95.3269 102.823 95.2091 102.825 95.0903C102.825 94.8999 103.879 75.769 123.076 64.7241C127.351 62.2149 132.128 60.6817 137.065 60.2344C150.007 59.1357 161.038 69.9975 160.247 83.1811C160.051 86.5748 159.613 89.9501 158.936 93.2812C159.831 93.5788 160.576 94.2103 161.017 95.0441C161.458 95.8779 161.561 96.8497 161.303 97.7571C161.045 98.6644 160.447 99.4373 159.634 99.9147C158.82 100.392 157.854 100.537 156.936 100.32C153.545 109.321 147.803 114.441 139.849 115.532C138.164 115.764 136.466 115.882 134.766 115.884ZM104.304 94.9731C105.366 97.0239 116.462 117.261 139.666 114.082C147.217 113.042 152.644 108.032 155.779 99.1846C155.812 99.0922 155.864 99.0075 155.93 98.9355C155.997 98.8635 156.077 98.8056 156.167 98.7653C156.256 98.7249 156.353 98.703 156.451 98.7008C156.549 98.6986 156.647 98.7162 156.738 98.7524C157.017 98.8308 157.308 98.8536 157.595 98.8195C157.882 98.7853 158.16 98.6949 158.412 98.5535C158.665 98.412 158.887 98.2222 159.066 97.995C159.245 97.7677 159.377 97.5074 159.456 97.229C159.534 96.9505 159.557 96.6594 159.523 96.3721C159.488 96.0849 159.398 95.8072 159.257 95.5548C159.115 95.3025 158.925 95.0805 158.698 94.9015C158.471 94.7226 158.211 94.5901 157.932 94.5117C157.835 94.4943 157.742 94.4575 157.66 94.4034C157.577 94.3493 157.507 94.2791 157.452 94.1971C157.397 94.115 157.36 94.0227 157.341 93.9257C157.323 93.8288 157.325 93.7291 157.346 93.6328C158.086 90.1612 158.557 86.6375 158.752 83.0932C159.485 70.8252 149.231 60.6738 137.161 61.6919C132.439 62.1263 127.87 63.5941 123.779 65.9912C106.289 76.0547 104.429 93.0176 104.275 94.9731H104.304Z" fill="#090817"/>
        <path d="M112.383 91.2963C112.383 91.2963 107.307 82.4047 112.383 78.6547C117.458 74.9047 119.583 79.5629 120.549 81.4965C121.516 83.4301 125.566 83.4301 128.108 75.9374C130.649 68.4447 149.268 73.9745 149.414 63.4789C149.414 63.4789 158.936 70.2465 159.5 80.5297C159.5 80.5297 164.048 73.2714 161.506 66.6137C158.965 59.9559 150.879 59.6044 150.879 59.6044C150.879 59.6044 126.885 45.41 106.758 55.664C86.6308 65.9179 90.0073 96.0058 81.7822 110.837C73.5571 125.669 65.1855 131.506 73.2422 146.023C73.2422 146.023 90.6152 122.439 97.5073 121.164C104.399 119.89 112.434 121.084 116.082 113.782C119.729 106.479 112.383 91.2963 112.383 91.2963Z" fill="#080717"/>
        <path d="M141.907 92.6165C142.186 91.0391 140.514 89.4246 138.172 89.0103C135.829 88.5961 133.705 89.539 133.426 91.1163C133.147 92.6937 134.819 94.3082 137.161 94.7225C139.503 95.1367 141.628 94.1938 141.907 92.6165Z" fill="#F7B318"/>
        <path d="M114.199 89.6485C114.058 89.6482 113.921 89.6073 113.802 89.5306C113.684 89.454 113.59 89.3449 113.533 89.2164C112.17 86.2281 113.181 84.0894 115.649 83.1519L112.859 81.5259C112.771 81.4802 112.694 81.4171 112.631 81.3407C112.569 81.2642 112.522 81.1759 112.495 81.081C112.467 80.9862 112.459 80.8867 112.471 80.7886C112.483 80.6906 112.515 80.5959 112.564 80.5104C112.614 80.4249 112.68 80.3503 112.759 80.291C112.838 80.2317 112.928 80.1891 113.024 80.1656C113.12 80.1421 113.22 80.1382 113.317 80.1542C113.415 80.1703 113.508 80.2059 113.591 80.2589L117.942 82.8004C118.076 82.8788 118.182 82.9981 118.244 83.1408C118.306 83.2836 118.321 83.4424 118.287 83.5942C118.253 83.746 118.171 83.8829 118.054 83.9852C117.936 84.0874 117.789 84.1495 117.634 84.1627C117.634 84.1627 115.437 84.3604 114.646 85.6715C114.229 86.4039 114.294 87.378 114.858 88.6011C114.912 88.7126 114.936 88.8357 114.928 88.959C114.921 89.0823 114.883 89.2017 114.817 89.3062C114.751 89.4107 114.66 89.4969 114.552 89.5567C114.444 89.6166 114.323 89.6482 114.199 89.6485Z" fill="#090817"/>
        <path d="M69.0894 178.521C68.926 178.521 68.7671 178.468 68.6378 178.368C68.5086 178.268 68.4164 178.128 68.376 177.969C68.3356 177.811 68.3493 177.644 68.4148 177.494C68.4804 177.345 68.594 177.221 68.7378 177.144C69.0527 176.968 76.648 172.874 82.5 173.137C82.5962 173.142 82.6905 173.166 82.7775 173.207C82.8645 173.248 82.9426 173.306 83.0072 173.378C83.0718 173.449 83.1217 173.532 83.1541 173.623C83.1864 173.714 83.2006 173.81 83.1958 173.906C83.191 174.002 83.1673 174.097 83.126 174.184C83.0848 174.271 83.0268 174.349 82.9554 174.413C82.884 174.478 82.8005 174.528 82.7098 174.56C82.6191 174.593 82.5229 174.607 82.4268 174.602C76.9702 174.346 69.5142 178.389 69.4409 178.425C69.3336 178.486 69.2127 178.519 69.0894 178.521Z" fill="#090817"/>
        <path d="M177.004 331.948C173.591 330.967 152.329 320.164 151.421 319.709C151.335 319.666 151.258 319.605 151.195 319.532C151.133 319.459 151.085 319.374 151.055 319.282C151.025 319.19 151.014 319.093 151.021 318.997C151.029 318.901 151.055 318.807 151.099 318.721C151.142 318.635 151.203 318.558 151.276 318.495C151.349 318.432 151.434 318.385 151.526 318.355C151.618 318.325 151.715 318.313 151.811 318.321C151.907 318.328 152.001 318.355 152.087 318.398C152.307 318.516 174.126 329.597 177.407 330.535C180.088 331.267 193.865 330.776 198.948 330.535C199.044 330.53 199.14 330.544 199.231 330.576C199.322 330.608 199.405 330.658 199.477 330.723C199.548 330.788 199.606 330.866 199.647 330.953C199.689 331.04 199.712 331.134 199.717 331.23C199.727 331.424 199.66 331.613 199.531 331.757C199.402 331.901 199.221 331.988 199.028 332C195.681 332.146 180.212 332.856 177.004 331.948Z" fill="#090817"/>
        <path d="M239.692 332.402C239.53 332.404 239.372 332.351 239.243 332.252C239.114 332.154 239.022 332.016 238.98 331.859C238.938 331.702 238.949 331.536 239.012 331.387C239.074 331.237 239.185 331.113 239.326 331.033L277.214 309.155C277.298 309.107 277.39 309.075 277.486 309.063C277.582 309.05 277.679 309.057 277.772 309.082C277.866 309.107 277.953 309.151 278.03 309.21C278.106 309.269 278.17 309.342 278.218 309.426C278.313 309.594 278.338 309.794 278.288 309.98C278.237 310.167 278.114 310.326 277.947 310.422C237.305 333.875 240 332.402 239.692 332.402Z" fill="#090817"/>
        <path d="M237.026 319.058C239.207 319.058 240.974 317.29 240.974 315.11C240.974 312.93 239.207 311.162 237.026 311.162C234.846 311.162 233.079 312.93 233.079 315.11C233.079 317.29 234.846 319.058 237.026 319.058Z" fill="white"/>
        <path d="M237.026 319.783C236.1 319.783 235.195 319.508 234.425 318.993C233.656 318.479 233.056 317.747 232.702 316.892C232.348 316.036 232.255 315.095 232.437 314.187C232.618 313.279 233.064 312.445 233.72 311.791C234.375 311.136 235.209 310.691 236.118 310.511C237.026 310.332 237.967 310.425 238.822 310.781C239.678 311.136 240.408 311.737 240.921 312.508C241.435 313.278 241.708 314.184 241.707 315.11C241.705 316.35 241.211 317.538 240.333 318.415C239.456 319.291 238.266 319.783 237.026 319.783ZM237.026 311.895C236.39 311.895 235.769 312.083 235.24 312.436C234.711 312.79 234.299 313.292 234.056 313.879C233.812 314.467 233.749 315.113 233.873 315.737C233.997 316.361 234.303 316.934 234.753 317.383C235.202 317.833 235.775 318.139 236.399 318.263C237.023 318.387 237.669 318.324 238.257 318.08C238.844 317.837 239.347 317.425 239.7 316.896C240.053 316.367 240.242 315.746 240.242 315.11C240.24 314.258 239.9 313.441 239.298 312.838C238.695 312.236 237.879 311.896 237.026 311.895Z" fill="#090817"/>
        <path d="M162.451 310.437C164.587 310.437 166.318 308.706 166.318 306.57C166.318 304.434 164.587 302.703 162.451 302.703C160.315 302.703 158.584 304.434 158.584 306.57C158.584 308.706 160.315 310.437 162.451 310.437Z" fill="white"/>
        <path d="M162.451 311.169C161.542 311.168 160.653 310.897 159.898 310.391C159.142 309.884 158.554 309.166 158.207 308.325C157.86 307.484 157.77 306.56 157.948 305.668C158.126 304.776 158.565 303.957 159.209 303.315C159.852 302.672 160.672 302.235 161.564 302.058C162.456 301.881 163.38 301.973 164.22 302.321C165.06 302.669 165.778 303.259 166.283 304.015C166.789 304.771 167.058 305.66 167.058 306.57C167.056 307.79 166.57 308.96 165.706 309.823C164.842 310.685 163.672 311.169 162.451 311.169ZM162.451 303.435C161.831 303.437 161.226 303.622 160.712 303.967C160.197 304.312 159.796 304.802 159.56 305.375C159.324 305.948 159.263 306.578 159.385 307.186C159.507 307.793 159.806 308.351 160.244 308.789C160.683 309.227 161.242 309.525 161.85 309.645C162.458 309.765 163.087 309.703 163.66 309.465C164.232 309.228 164.721 308.826 165.065 308.311C165.41 307.795 165.593 307.19 165.593 306.57C165.593 306.158 165.512 305.749 165.354 305.369C165.196 304.988 164.964 304.642 164.673 304.351C164.381 304.059 164.034 303.829 163.653 303.672C163.272 303.514 162.863 303.434 162.451 303.435Z" fill="#090817"/>
        <path d="M133.726 313.733H46.6992C44.0861 313.733 41.9678 315.851 41.9678 318.464V330.857C41.9678 333.47 44.0861 335.588 46.6992 335.588H133.726C136.339 335.588 138.457 333.47 138.457 330.857V318.464C138.457 315.851 136.339 313.733 133.726 313.733Z" fill="white"/>
        <path d="M133.726 336.321H46.6992C45.2514 336.321 43.8627 335.746 42.8383 334.723C41.8138 333.7 41.2373 332.312 41.2354 330.864V318.464C41.2373 317.016 41.8136 315.627 42.8378 314.603C43.8621 313.579 45.2507 313.002 46.6992 313H133.726C135.174 313.002 136.563 313.579 137.587 314.603C138.611 315.627 139.188 317.016 139.189 318.464V330.864C139.188 332.312 138.611 333.7 137.587 334.723C136.562 335.746 135.173 336.321 133.726 336.321ZM46.6992 314.465C45.6392 314.467 44.6232 314.889 43.8736 315.639C43.1241 316.388 42.7021 317.404 42.7002 318.464V330.864C42.7021 331.924 43.1243 332.939 43.8741 333.687C44.6238 334.436 45.6399 334.856 46.6992 334.856H133.726C134.785 334.856 135.801 334.436 136.551 333.687C137.3 332.939 137.723 331.924 137.725 330.864V318.464C137.723 317.404 137.301 316.388 136.551 315.639C135.802 314.889 134.786 314.467 133.726 314.465H46.6992Z" fill="#090817"/>
        <path d="M145.217 291.145H58.1909C55.5778 291.145 53.4595 293.263 53.4595 295.876V308.269C53.4595 310.882 55.5778 313 58.1909 313H145.217C147.83 313 149.949 310.882 149.949 308.269V295.876C149.949 293.263 147.83 291.145 145.217 291.145Z" fill="white"/>
        <path d="M145.217 313.74H58.1909C56.7437 313.736 55.3569 313.159 54.3343 312.135C53.3116 311.111 52.7363 309.724 52.7344 308.276V295.898C52.7363 294.45 53.3126 293.061 54.3368 292.037C55.3611 291.013 56.7497 290.437 58.1982 290.435H145.217C146.666 290.437 148.054 291.013 149.079 292.037C150.103 293.061 150.679 294.45 150.681 295.898V308.276C150.679 309.725 150.103 311.114 149.079 312.138C148.054 313.162 146.666 313.738 145.217 313.74ZM58.1909 291.877C57.6648 291.879 57.1442 291.985 56.6589 292.188C56.1735 292.391 55.733 292.688 55.3623 293.061C54.9916 293.435 54.6981 293.877 54.4986 294.364C54.299 294.851 54.1973 295.372 54.1992 295.898V308.276C54.2012 309.336 54.6231 310.352 55.3726 311.102C56.1222 311.851 57.1382 312.273 58.1982 312.275H145.217C146.277 312.273 147.293 311.851 148.043 311.102C148.792 310.352 149.214 309.336 149.216 308.276V295.898C149.214 294.838 148.792 293.822 148.043 293.073C147.293 292.323 146.277 291.901 145.217 291.899L58.1909 291.877Z" fill="#090817"/>
        <path d="M142.009 247.434H54.9829C52.3698 247.434 50.2515 249.552 50.2515 252.166V264.558C50.2515 267.171 52.3698 269.29 54.9829 269.29H142.009C144.622 269.29 146.741 267.171 146.741 264.558V252.166C146.741 249.552 144.622 247.434 142.009 247.434Z" fill="white"/>
        <path d="M142.009 270.022H54.9756C53.5277 270.02 52.1399 269.444 51.1168 268.419C50.0937 267.395 49.519 266.006 49.519 264.558V252.158C49.521 250.712 50.0965 249.325 51.1194 248.302C52.1422 247.279 53.529 246.704 54.9756 246.702H142.009C143.457 246.702 144.846 247.276 145.87 248.299C146.895 249.322 147.471 250.71 147.473 252.158V264.558C147.471 266.007 146.895 267.395 145.871 268.42C144.846 269.444 143.458 270.02 142.009 270.022ZM54.9756 248.167C53.9175 248.168 52.9033 248.59 52.1552 249.338C51.407 250.086 50.9858 251.1 50.9839 252.158V264.558C50.9839 265.617 51.4042 266.634 52.1526 267.383C52.901 268.133 53.9162 268.555 54.9756 268.557H142.009C143.069 268.555 144.085 268.133 144.835 267.384C145.584 266.634 146.006 265.618 146.008 264.558V252.158C146.006 251.099 145.584 250.084 144.834 249.335C144.085 248.587 143.069 248.167 142.009 248.167H54.9756Z" fill="#090817"/>
        <path d="M46.6992 291.145H133.726C136.339 291.145 138.457 289.027 138.457 286.414V274.021C138.457 271.408 136.339 269.29 133.726 269.29H46.6992C44.0861 269.29 41.9678 271.408 41.9678 274.021V286.414C41.9678 289.027 44.0861 291.145 46.6992 291.145Z" fill="white"/>
        <path d="M133.726 291.877H46.6992C45.2514 291.877 43.8627 291.303 42.8383 290.28C41.8138 289.257 41.2373 287.869 41.2354 286.421V274.021C41.2373 272.572 41.8136 271.184 42.8378 270.16C43.8621 269.135 45.2507 268.559 46.6992 268.557H133.726C135.174 268.559 136.563 269.135 137.587 270.16C138.611 271.184 139.188 272.572 139.189 274.021V286.421C139.188 287.869 138.611 289.257 137.587 290.28C136.562 291.303 135.173 291.877 133.726 291.877ZM46.6992 270.022C45.6392 270.024 44.6232 270.446 43.8736 271.195C43.1241 271.945 42.7021 272.961 42.7002 274.021V286.421C42.7021 287.48 43.1243 288.496 43.8741 289.244C44.6238 289.992 45.6399 290.413 46.6992 290.413H133.726C134.785 290.413 135.801 289.992 136.551 289.244C137.3 288.496 137.723 287.48 137.725 286.421V274.021C137.723 272.961 137.301 271.945 136.551 271.195C135.802 270.446 134.786 270.024 133.726 270.022H46.6992Z" fill="#090817"/>
        <path d="M212.329 230.471C212.208 230.471 212.09 230.44 211.984 230.383C211.878 230.325 211.788 230.242 211.721 230.142C211.648 230.024 204.031 218.569 199.182 213.721C194.334 208.872 185.266 206.799 185.149 206.785C185.055 206.763 184.967 206.723 184.888 206.667C184.81 206.611 184.743 206.541 184.692 206.459C184.641 206.377 184.607 206.286 184.591 206.192C184.575 206.097 184.578 206 184.6 205.906C184.621 205.812 184.661 205.723 184.717 205.645C184.773 205.567 184.844 205.5 184.925 205.449C185.007 205.398 185.098 205.364 185.193 205.348C185.288 205.332 185.385 205.335 185.479 205.356C185.867 205.444 195.168 207.634 200.222 212.681C205.276 217.727 212.629 228.853 212.944 229.321C213.021 229.432 213.066 229.562 213.074 229.697C213.082 229.831 213.052 229.965 212.988 230.084C212.925 230.203 212.83 230.302 212.713 230.371C212.597 230.439 212.464 230.474 212.329 230.471Z" fill="white"/>
        <path d="M200.5 284.788C200.396 284.788 200.294 284.765 200.199 284.722C200.104 284.679 200.02 284.617 199.951 284.539L168.083 248.438C168.019 248.365 167.969 248.281 167.938 248.189C167.906 248.098 167.893 248.001 167.899 247.904C167.905 247.807 167.931 247.713 167.974 247.626C168.016 247.539 168.076 247.461 168.149 247.398L179.751 237.305C179.899 237.185 180.087 237.126 180.277 237.143C180.466 237.159 180.642 237.249 180.767 237.393C180.892 237.536 180.955 237.723 180.945 237.913C180.934 238.103 180.85 238.282 180.71 238.411L169.673 248.005L201.05 283.55C201.15 283.655 201.217 283.787 201.242 283.93C201.266 284.073 201.248 284.22 201.189 284.353C201.131 284.485 201.034 284.597 200.911 284.675C200.788 284.752 200.645 284.792 200.5 284.788Z" fill="white"/>
        <path d="M160.488 72.5538C160.312 72.5558 160.14 72.4939 160.006 72.3795C159.871 72.2651 159.782 72.1059 159.756 71.9313C159.097 67.4562 152.871 64.4093 152.805 64.38C152.718 64.3378 152.641 64.2789 152.577 64.2067C152.513 64.1345 152.464 64.0504 152.433 63.9592C152.402 63.868 152.389 63.7716 152.395 63.6754C152.401 63.5792 152.426 63.4851 152.468 63.3985C152.553 63.2254 152.704 63.0928 152.886 63.0297C153.068 62.9666 153.268 62.9781 153.442 63.0616C153.728 63.2008 160.43 66.4894 161.199 71.7189C161.213 71.8215 161.206 71.926 161.177 72.0255C161.148 72.125 161.099 72.2173 161.031 72.2962C160.964 72.3751 160.881 72.4389 160.787 72.4833C160.694 72.5277 160.592 72.5517 160.488 72.5538Z" fill="white"/>
        <path d="M122.139 71.3673C121.846 71.3673 121.56 71.3673 121.274 71.3673C121.08 71.3566 120.898 71.2692 120.768 71.1243C120.639 70.9794 120.572 70.7888 120.582 70.5946C120.593 70.4003 120.68 70.2183 120.825 70.0885C120.97 69.9587 121.161 69.8918 121.355 69.9025C129.514 70.3566 137.095 63.3107 137.168 63.2081C137.31 63.0741 137.499 63.0019 137.694 63.0074C137.889 63.0129 138.074 63.0956 138.208 63.2374C138.342 63.3792 138.414 63.5685 138.409 63.7635C138.403 63.9585 138.321 64.1434 138.179 64.2775C137.864 64.5485 130.562 71.3673 122.139 71.3673Z" fill="white"/>
        <path d="M117.92 67.1631C116.754 67.1625 115.59 67.062 114.441 66.8628C114.346 66.846 114.256 66.8107 114.175 66.7589C114.093 66.7071 114.023 66.6398 113.968 66.5609C113.913 66.482 113.874 66.3931 113.853 66.2991C113.833 66.2051 113.831 66.1079 113.848 66.0132C113.864 65.9184 113.9 65.8279 113.952 65.7468C114.003 65.6657 114.071 65.5956 114.15 65.5405C114.228 65.4854 114.317 65.4464 114.411 65.4257C114.505 65.405 114.603 65.4031 114.697 65.4199C121.838 66.687 128.54 63.1128 128.613 63.0762C128.784 62.9839 128.985 62.9633 129.171 63.019C129.357 63.0746 129.513 63.2019 129.606 63.3728C129.698 63.5438 129.719 63.7443 129.663 63.9305C129.607 64.1166 129.48 64.273 129.309 64.3652C125.774 66.1487 121.879 67.1054 117.92 67.1631Z" fill="white"/>
        <path d="M104.275 113.709C107.937 112.397 110.186 109.578 111.021 105.315C111.409 103.264 111.461 101.164 111.174 99.0967C111.141 98.9024 111.187 98.703 111.301 98.5423C111.415 98.3816 111.588 98.2728 111.782 98.2398C111.976 98.2067 112.176 98.2522 112.337 98.3662C112.497 98.4802 112.606 98.6534 112.639 98.8477C112.639 98.9722 114.683 111.533 104.788 115.085C104.605 115.153 104.403 115.146 104.226 115.065C104.049 114.984 103.911 114.836 103.843 114.653C103.775 114.471 103.782 114.269 103.863 114.091C103.944 113.914 104.092 113.776 104.275 113.709Z" fill="white"/>
        <path d="M90.6152 117.268C90.5984 117.173 90.6007 117.075 90.6218 116.981C90.643 116.886 90.6826 116.797 90.7384 116.718C90.7943 116.639 90.8652 116.572 90.9472 116.52C91.0291 116.469 91.1204 116.434 91.2158 116.418C100.627 114.778 104.788 106.443 104.832 106.362C104.919 106.193 105.07 106.064 105.251 106.004C105.432 105.944 105.629 105.957 105.801 106.04C105.972 106.123 106.105 106.269 106.17 106.449C106.235 106.628 106.228 106.826 106.15 106.999C105.967 107.373 101.638 116.089 91.4648 117.861C91.3701 117.878 91.273 117.876 91.179 117.856C91.085 117.835 90.996 117.796 90.9171 117.741C90.8382 117.686 90.7709 117.616 90.7191 117.534C90.6673 117.453 90.632 117.363 90.6152 117.268Z" fill="white"/>
        <path d="M66.5479 270.022C66.3536 270.022 66.1673 269.945 66.03 269.807C65.8926 269.67 65.8154 269.484 65.8154 269.29V247.434C65.8154 247.24 65.8926 247.054 66.03 246.916C66.1673 246.779 66.3536 246.702 66.5479 246.702C66.7421 246.702 66.9284 246.779 67.0658 246.916C67.2031 247.054 67.2803 247.24 67.2803 247.434V269.29C67.2803 269.484 67.2031 269.67 67.0658 269.807C66.9284 269.945 66.7421 270.022 66.5479 270.022Z" fill="#090817"/>
        <path d="M93.1567 270.022C92.9625 270.022 92.7762 269.945 92.6388 269.807C92.5015 269.67 92.4243 269.484 92.4243 269.29V247.434C92.4243 247.24 92.5015 247.054 92.6388 246.916C92.7762 246.779 92.9625 246.702 93.1567 246.702C93.351 246.702 93.5373 246.779 93.6746 246.916C93.812 247.054 93.8892 247.24 93.8892 247.434V269.29C93.8892 269.484 93.812 269.67 93.6746 269.807C93.5373 269.945 93.351 270.022 93.1567 270.022Z" fill="#090817"/>
        <path d="M118.308 270.022C118.114 270.022 117.928 269.945 117.79 269.807C117.653 269.67 117.576 269.484 117.576 269.29V247.434C117.576 247.24 117.653 247.054 117.79 246.916C117.928 246.779 118.114 246.702 118.308 246.702C118.502 246.702 118.689 246.779 118.826 246.916C118.963 247.054 119.041 247.24 119.041 247.434V269.29C119.041 269.484 118.963 269.67 118.826 269.807C118.689 269.945 118.502 270.022 118.308 270.022Z" fill="#090817"/>
        <path d="M73.2422 313.74C73.0479 313.74 72.8616 313.663 72.7243 313.526C72.5869 313.388 72.5098 313.202 72.5098 313.008V291.145C72.5098 290.951 72.5869 290.764 72.7243 290.627C72.8616 290.49 73.0479 290.413 73.2422 290.413C73.4364 290.413 73.6227 290.49 73.7601 290.627C73.8974 290.764 73.9746 290.951 73.9746 291.145V313.008C73.9746 313.202 73.8974 313.388 73.7601 313.526C73.6227 313.663 73.4364 313.74 73.2422 313.74Z" fill="#090817"/>
        <path d="M93.1567 313.74C92.9625 313.74 92.7762 313.663 92.6388 313.526C92.5015 313.388 92.4243 313.202 92.4243 313.008V291.145C92.4243 290.951 92.5015 290.764 92.6388 290.627C92.7762 290.49 92.9625 290.413 93.1567 290.413C93.351 290.413 93.5373 290.49 93.6746 290.627C93.812 290.764 93.8892 290.951 93.8892 291.145V313.008C93.8892 313.202 93.812 313.388 93.6746 313.526C93.5373 313.663 93.351 313.74 93.1567 313.74Z" fill="#090817"/>
        <path d="M111.064 314.465C110.87 314.465 110.684 314.388 110.547 314.251C110.409 314.113 110.332 313.927 110.332 313.733V291.145C110.332 290.951 110.409 290.764 110.547 290.627C110.684 290.49 110.87 290.413 111.064 290.413C111.259 290.413 111.445 290.49 111.582 290.627C111.72 290.764 111.797 290.951 111.797 291.145V313.733C111.797 313.829 111.778 313.924 111.741 314.013C111.704 314.102 111.65 314.183 111.582 314.251C111.514 314.319 111.434 314.373 111.345 314.41C111.256 314.446 111.161 314.465 111.064 314.465Z" fill="#090817"/>
        <path d="M130.642 313.74C130.448 313.74 130.262 313.663 130.124 313.526C129.987 313.388 129.91 313.202 129.91 313.008V291.145C129.91 290.951 129.987 290.764 130.124 290.627C130.262 290.49 130.448 290.413 130.642 290.413C130.836 290.413 131.023 290.49 131.16 290.627C131.297 290.764 131.375 290.951 131.375 291.145V313.008C131.375 313.202 131.297 313.388 131.16 313.526C131.023 313.663 130.836 313.74 130.642 313.74Z" fill="#090817"/>
        <path d="M56.3965 291.877C56.2022 291.877 56.0159 291.8 55.8786 291.663C55.7412 291.526 55.6641 291.339 55.6641 291.145V269.29C55.6641 269.095 55.7412 268.909 55.8786 268.772C56.0159 268.634 56.2022 268.557 56.3965 268.557C56.5907 268.557 56.777 268.634 56.9144 268.772C57.0517 268.909 57.1289 269.095 57.1289 269.29V291.145C57.1289 291.339 57.0517 291.526 56.9144 291.663C56.777 291.8 56.5907 291.877 56.3965 291.877Z" fill="#090817"/>
        <path d="M58.2642 336.321C58.0699 336.321 57.8836 336.244 57.7463 336.106C57.6089 335.969 57.5317 335.783 57.5317 335.588V313.733C57.5317 313.539 57.6089 313.352 57.7463 313.215C57.8836 313.078 58.0699 313 58.2642 313C58.4584 313 58.6447 313.078 58.7821 313.215C58.9194 313.352 58.9966 313.539 58.9966 313.733V335.588C58.9966 335.783 58.9194 335.969 58.7821 336.106C58.6447 336.244 58.4584 336.321 58.2642 336.321Z" fill="#090817"/>
        <path d="M76.4648 336.321C76.2706 336.321 76.0843 336.244 75.9469 336.106C75.8096 335.969 75.7324 335.783 75.7324 335.588V313.733C75.7324 313.539 75.8096 313.352 75.9469 313.215C76.0843 313.078 76.2706 313 76.4648 313C76.6591 313 76.8454 313.078 76.9827 313.215C77.1201 313.352 77.1973 313.539 77.1973 313.733V335.588C77.1973 335.783 77.1201 335.969 76.9827 336.106C76.8454 336.244 76.6591 336.321 76.4648 336.321Z" fill="#090817"/>
        <path d="M94.6655 336.321C94.4713 336.321 94.285 336.244 94.1476 336.106C94.0103 335.969 93.9331 335.783 93.9331 335.588V313.733C93.9331 313.539 94.0103 313.352 94.1476 313.215C94.285 313.078 94.4713 313 94.6655 313C94.8598 313 95.0461 313.078 95.1834 313.215C95.3208 313.352 95.3979 313.539 95.3979 313.733V335.588C95.3979 335.783 95.3208 335.969 95.1834 336.106C95.0461 336.244 94.8598 336.321 94.6655 336.321Z" fill="#090817"/>
        <path d="M112.866 336.321C112.672 336.321 112.486 336.244 112.348 336.106C112.211 335.969 112.134 335.783 112.134 335.588V313.733C112.134 313.539 112.211 313.352 112.348 313.215C112.486 313.078 112.672 313 112.866 313C113.06 313 113.247 313.078 113.384 313.215C113.521 313.352 113.599 313.539 113.599 313.733V335.588C113.599 335.783 113.521 335.969 113.384 336.106C113.247 336.244 113.06 336.321 112.866 336.321Z" fill="#090817"/>
        <path d="M131.104 336.321C130.909 336.321 130.723 336.244 130.586 336.106C130.448 335.969 130.371 335.783 130.371 335.588V313.733C130.371 313.539 130.448 313.352 130.586 313.215C130.723 313.078 130.909 313 131.104 313C131.298 313 131.484 313.078 131.621 313.215C131.759 313.352 131.836 313.539 131.836 313.733V335.588C131.836 335.783 131.759 335.969 131.621 336.106C131.484 336.244 131.298 336.321 131.104 336.321Z" fill="#090817"/>
        <path d="M76.4648 291.877C76.2706 291.877 76.0843 291.8 75.9469 291.663C75.8096 291.526 75.7324 291.339 75.7324 291.145V269.29C75.7324 269.095 75.8096 268.909 75.9469 268.772C76.0843 268.634 76.2706 268.557 76.4648 268.557C76.6591 268.557 76.8454 268.634 76.9827 268.772C77.1201 268.909 77.1973 269.095 77.1973 269.29V291.145C77.1973 291.339 77.1201 291.526 76.9827 291.663C76.8454 291.8 76.6591 291.877 76.4648 291.877Z" fill="#090817"/>
        <path d="M96.5405 291.877C96.3463 291.877 96.16 291.8 96.0226 291.663C95.8853 291.526 95.8081 291.339 95.8081 291.145V269.29C95.8081 269.095 95.8853 268.909 96.0226 268.772C96.16 268.634 96.3463 268.557 96.5405 268.557C96.7348 268.557 96.9211 268.634 97.0584 268.772C97.1958 268.909 97.2729 269.095 97.2729 269.29V291.145C97.2729 291.339 97.1958 291.526 97.0584 291.663C96.9211 291.8 96.7348 291.877 96.5405 291.877Z" fill="#090817"/>
        <path d="M116.616 291.877C116.422 291.877 116.236 291.8 116.098 291.663C115.961 291.526 115.884 291.339 115.884 291.145V269.29C115.884 269.095 115.961 268.909 116.098 268.772C116.236 268.634 116.422 268.557 116.616 268.557C116.81 268.557 116.997 268.634 117.134 268.772C117.271 268.909 117.349 269.095 117.349 269.29V291.145C117.349 291.339 117.271 291.526 117.134 291.663C116.997 291.8 116.81 291.877 116.616 291.877Z" fill="#090817"/>
        <path d="M141.182 206.345C140.987 206.345 140.801 206.268 140.664 206.131C140.526 205.993 140.449 205.807 140.449 205.613V200.449C140.449 200.255 140.526 200.069 140.664 199.931C140.801 199.794 140.987 199.717 141.182 199.717L202.852 200.53C203.046 200.53 203.232 200.607 203.369 200.744C203.507 200.882 203.584 201.068 203.584 201.262C203.584 201.456 203.507 201.643 203.369 201.78C203.232 201.917 203.046 201.995 202.852 201.995L141.921 201.189V205.584C141.925 205.683 141.909 205.782 141.874 205.875C141.838 205.967 141.784 206.052 141.715 206.123C141.646 206.194 141.563 206.251 141.471 206.289C141.379 206.327 141.281 206.346 141.182 206.345Z" fill="#090817"/>
        <path d="M178.066 186.599C183.276 186.599 187.5 182.376 187.5 177.166C187.5 171.956 183.276 167.732 178.066 167.732C172.856 167.732 168.633 171.956 168.633 177.166C168.633 182.376 172.856 186.599 178.066 186.599Z" fill="#080717"/>
    </g>
    <defs>
        <clipPath id="clip0_1400_7131">
            <rect width="375" height="375" fill="white"/>
        </clipPath>
    </defs>
</svg>
