<svg width="375" height="375" viewBox="0 0 375 375" fill="none" xmlns="http://www.w3.org/2000/svg">
    <g clip-path="url(#clip0_1400_6670)">
        <g opacity="0.2">
            <path d="M280.032 291.082C337.238 233.877 337.238 141.128 280.032 83.9221C222.826 26.7164 130.077 26.7164 72.8717 83.9221C15.666 141.128 15.666 233.877 72.8717 291.082C130.077 348.288 222.826 348.288 280.032 291.082Z" fill="#F7B318"/>
        </g>
        <path d="M162.979 187.141C162.979 187.141 142.61 161.367 167.373 146.33C192.136 131.294 167.249 106.78 193.887 79.3066C220.525 51.8334 276.797 76.2524 278.115 87.4731C279.434 98.6938 270.381 105.051 278.115 130.862C285.85 156.672 271.465 173.393 271.465 173.393C271.465 173.393 197.754 218.503 162.979 187.141Z" fill="#080717"/>
        <path d="M243.296 122.681H219.016V162.649H243.296V122.681Z" fill="white"/>
        <path d="M243.303 163.389H218.994C218.8 163.389 218.614 163.312 218.476 163.174C218.339 163.037 218.262 162.851 218.262 162.656V122.681C218.262 122.486 218.339 122.3 218.476 122.163C218.614 122.025 218.8 121.948 218.994 121.948H243.281C243.476 121.948 243.662 122.025 243.799 122.163C243.936 122.3 244.014 122.486 244.014 122.681V162.656C244.014 162.847 243.94 163.03 243.807 163.167C243.674 163.303 243.494 163.383 243.303 163.389ZM219.749 161.924H242.571V123.413H219.727L219.749 161.924Z" fill="#090817"/>
        <path d="M328.389 218.188C305.193 188.013 291.013 147.217 246.826 150.146C217.031 152.161 198.882 151.567 184.526 160.4C179.839 163.293 175.51 168.23 173.027 172.441C167.659 181.545 170.098 220.547 169.871 234.141C169.343 270.278 148.206 276.226 154.402 292.786C165.886 323.437 246.548 324.961 302.622 303.772C332.893 292.309 339.902 280.276 342.583 273.267C349.175 256.011 341.799 235.627 328.389 218.188Z" fill="#F7B318"/>
        <path d="M110.471 178.44C119.106 239.583 139.431 334.534 179.531 287.029C182.065 246.621 167.08 219.229 147.847 182.739C144.287 175.986 141.255 170.596 139.468 167.358L110.471 178.44Z" fill="#F7B318"/>
        <path d="M270.996 95.7788C270.645 75 252.539 57.9419 230.259 58.3887C212.051 58.7476 196.956 70.7154 192.51 86.7408C186.519 85.0489 180.527 89.4141 180.652 95.3907C180.769 100.466 185.376 104.553 190.906 103.982C192.371 118.967 199.138 140.017 225.886 141.335C249.771 142.5 261.086 127.419 266.404 114.346C266.682 113.84 266.946 113.328 267.202 112.808C273.303 115.122 279.983 110.75 279.844 104.414C279.745 102.119 278.775 99.9477 277.131 98.3432C275.487 96.7386 273.293 95.8215 270.996 95.7788Z" fill="white"/>
        <path d="M228.516 142.09C205.173 142.09 192.693 127.441 190.283 104.736C181.56 105.11 176.58 94.9731 182.593 88.7035C183.794 87.4644 185.291 86.5509 186.942 86.0487C188.594 85.5465 190.346 85.4721 192.034 85.8324C196.897 69.536 212.542 58.0004 230.281 57.6269C252.451 57.1874 270.93 73.9233 271.75 95.0683C279.807 95.9179 283.528 105.256 277.983 111.035C276.664 112.388 274.997 113.35 273.166 113.816C271.334 114.281 269.41 114.231 267.605 113.672C267.444 113.994 267.275 114.309 267.1 114.624C261.914 127.339 251.06 142.09 228.516 142.09ZM191.667 103.879C194.443 132.949 211.846 139.871 225.959 140.566C249.492 141.716 260.596 126.775 265.759 114.038C265.796 113.943 266.082 113.467 266.587 112.449C266.667 112.285 266.805 112.156 266.974 112.088C267.143 112.021 267.332 112.019 267.502 112.082C273.127 114.221 279.28 110.2 279.148 104.392C279.042 102.289 278.141 100.306 276.628 98.8422C275.114 97.3789 273.101 96.5457 270.996 96.5112C270.897 96.5113 270.798 96.4912 270.707 96.4521C270.616 96.413 270.533 96.3558 270.465 96.2838C270.396 96.2119 270.343 96.1268 270.309 96.0336C270.274 95.9405 270.259 95.8413 270.264 95.7421C269.817 75.1318 251.851 58.6669 230.273 59.121C212.9 59.4652 197.666 70.9057 193.213 86.953C193.161 87.1392 193.037 87.2972 192.869 87.3925C192.312 87.7074 191.902 87.0922 189.712 87.1288C188.622 87.123 187.542 87.3323 186.533 87.7446C185.525 88.157 184.607 88.7643 183.834 89.5317C183.06 90.2992 182.446 91.2117 182.025 92.2171C181.605 93.2224 181.387 94.3009 181.384 95.3905C181.487 100.078 185.779 103.799 190.825 103.264C191.017 103.243 191.21 103.3 191.361 103.42C191.512 103.541 191.609 103.717 191.631 103.909L191.667 103.879Z" fill="#090817"/>
        <path d="M184.57 88.0079C186.431 87.3267 189.009 86.9385 190.327 88.44C190.701 88.8721 191.06 89.6192 191.104 91.2086C191.265 95.0684 195.132 95.4713 197.227 91.2086C199.321 86.9459 198.193 82.4195 210.278 80.6544C222.363 78.8892 237.686 61.1573 237.686 61.1573C237.686 61.1573 258.472 70.6129 262.207 82.2071C265.942 93.8013 264.353 98.9649 267.686 101.25C267.94 101.456 268.233 101.608 268.548 101.699C268.862 101.789 269.192 101.816 269.517 101.777C271.216 101.441 271.245 98.7086 273.025 97.8443C273.757 97.4854 275.076 97.3316 277.456 98.7232C282.81 71.5797 267.246 45.5347 239.011 50.3394C236.367 49.0723 222.795 43.2862 208.74 49.4532C198.523 53.9356 193.528 62.3731 191.162 66.4234C187.278 72.9909 185.018 80.3909 184.57 88.0079Z" fill="#080717"/>
        <path d="M247.163 144.17H215.156V161.58H247.163V144.17Z" fill="#F7B318"/>
        <path d="M111.13 179.158C108.486 174.88 102.239 164.063 102.268 155.457C102.268 153.486 102.268 149.736 104.546 148.521C105.074 148.282 105.644 148.15 106.224 148.132C106.803 148.114 107.381 148.212 107.922 148.418C107.922 148.418 107.19 142.105 113.159 144.566C113.159 144.566 105.923 116.733 109.922 115.767C113.921 114.8 119.78 141.643 119.78 141.643C119.78 141.643 122.402 113.921 126.248 114.544C130.093 115.166 127.793 142.573 127.793 142.573C127.793 142.573 136.721 145.986 137.952 150.828C138.853 154.365 139.014 164.121 139.036 169.138C139.041 170.145 138.84 171.142 138.444 172.068C138.048 172.994 137.467 173.829 136.736 174.522C130.693 180.33 122.461 181.025 122.461 181.025C118.589 181.328 114.701 180.687 111.13 179.158Z" fill="white"/>
        <path d="M120.535 181.809C117.206 181.797 113.913 181.127 110.845 179.839C110.705 179.779 110.587 179.676 110.508 179.546C107.146 174.097 101.506 163.718 101.536 155.456C101.536 153.303 101.536 149.297 104.202 147.876C105.106 147.419 106.138 147.279 107.131 147.48C107.241 144.39 108.992 142.683 112.083 143.452C110.713 137.996 106.355 119.634 108.604 115.92C108.72 115.703 108.883 115.513 109.079 115.363C109.275 115.213 109.502 115.108 109.743 115.053C109.983 114.998 110.233 114.995 110.475 115.045C110.717 115.095 110.945 115.196 111.145 115.342C114.265 117.319 117.781 130.261 119.48 137.248C120.322 129.968 122.256 116.33 125.024 114.184C125.204 114.035 125.412 113.925 125.637 113.862C125.862 113.799 126.097 113.784 126.328 113.818C127.83 114.053 129.338 116.016 129.163 128.796C129.082 134.56 128.665 140.332 128.525 142.09C130.503 142.917 137.483 146.133 138.625 150.637C139.534 154.204 139.709 163.74 139.731 169.101C139.737 170.208 139.516 171.303 139.083 172.321C138.65 173.338 138.013 174.257 137.212 175.019C132.653 179.22 126.731 181.631 120.535 181.809ZM111.628 178.572C115.036 179.978 118.728 180.558 122.402 180.264C122.483 180.264 130.459 179.531 136.23 173.965C136.889 173.34 137.413 172.586 137.769 171.751C138.126 170.916 138.308 170.017 138.303 169.109C138.303 164.846 138.149 154.541 137.241 150.996C136.121 146.601 127.617 143.284 127.529 143.254C127.383 143.198 127.259 143.097 127.174 142.965C127.09 142.833 127.05 142.678 127.061 142.522C127.061 142.449 127.639 135.608 127.734 128.782C127.91 115.708 126.204 115.29 126.13 115.276C126.068 115.287 126.01 115.315 125.962 115.356C123.633 117.158 121.384 132.488 120.513 141.724C120.524 141.918 120.458 142.109 120.329 142.254C120.2 142.4 120.018 142.488 119.824 142.5C119.63 142.512 119.439 142.446 119.293 142.316C119.148 142.187 119.06 142.006 119.048 141.811C117.034 132.612 113.064 118.301 110.376 116.594C110.112 116.426 110.002 116.47 109.871 116.689C108.223 119.421 111.335 134.758 113.848 144.397C113.883 144.529 113.88 144.668 113.84 144.799C113.8 144.929 113.725 145.046 113.622 145.136C113.519 145.226 113.393 145.285 113.258 145.308C113.123 145.33 112.985 145.314 112.859 145.261C111.804 144.829 110.369 144.448 109.526 145.093C108.56 145.825 108.552 147.685 108.625 148.345C108.641 148.466 108.625 148.59 108.581 148.704C108.536 148.818 108.463 148.919 108.369 148.998C108.275 149.077 108.163 149.131 108.042 149.155C107.922 149.179 107.798 149.172 107.681 149.136C103.667 147.876 103 151.333 102.979 155.471C102.971 163.264 108.34 173.21 111.628 178.572Z" fill="#090817"/>
        <path d="M258.962 96.6283C258.863 96.6289 258.764 96.6091 258.672 96.5701C258.58 96.531 258.497 96.4736 258.428 96.4013C256.487 94.2802 254.01 92.7218 251.258 91.8904C248.506 91.059 245.581 90.9853 242.791 91.6772C242.606 91.7372 242.405 91.7216 242.232 91.6337C242.059 91.5458 241.928 91.3929 241.868 91.2084C241.838 91.1166 241.827 91.0198 241.835 90.9236C241.843 90.8274 241.87 90.7338 241.914 90.648C241.958 90.5623 242.019 90.4861 242.093 90.4239C242.166 90.3617 242.252 90.3147 242.344 90.2856C245.4 89.5171 248.606 89.5878 251.625 90.4902C254.645 91.3926 257.364 93.0932 259.497 95.4125C259.589 95.5173 259.649 95.6463 259.671 95.7842C259.692 95.9221 259.674 96.0632 259.617 96.1909C259.561 96.3186 259.47 96.4277 259.354 96.5052C259.238 96.5827 259.102 96.6254 258.962 96.6283Z" fill="#080717"/>
        <path d="M247.91 100.994C247.512 100.805 247.078 100.703 246.638 100.694C246.197 100.685 245.76 100.77 245.354 100.942C245.266 100.981 245.171 101.003 245.075 101.005C244.979 101.007 244.883 100.991 244.793 100.956C244.703 100.921 244.621 100.869 244.552 100.803C244.482 100.736 244.426 100.657 244.387 100.569C244.307 100.393 244.3 100.193 244.368 100.012C244.435 99.8305 244.571 99.6833 244.746 99.6021C245.365 99.3367 246.035 99.2103 246.708 99.2318C247.381 99.2534 248.042 99.4222 248.643 99.7266C249.033 99.9624 249.408 100.224 249.763 100.51C251.038 101.492 251.565 101.77 252.422 101.038C252.493 100.965 252.578 100.908 252.672 100.87C252.766 100.832 252.867 100.814 252.969 100.817C253.07 100.82 253.17 100.845 253.262 100.888C253.353 100.932 253.435 100.994 253.501 101.071C253.567 101.148 253.617 101.238 253.646 101.335C253.676 101.432 253.685 101.535 253.673 101.635C253.661 101.736 253.629 101.833 253.577 101.921C253.526 102.008 253.456 102.084 253.374 102.144C251.074 104.121 249.28 101.807 247.91 100.994Z" fill="#080717"/>
        <path d="M246.357 107.82C248.736 107.82 250.664 105.892 250.664 103.513C250.664 101.135 248.736 99.2065 246.357 99.2065C243.979 99.2065 242.051 101.135 242.051 103.513C242.051 105.892 243.979 107.82 246.357 107.82Z" fill="#080717"/>
        <path d="M205.159 91.6187C205.009 91.6187 204.863 91.5728 204.74 91.4872C204.617 91.4016 204.523 91.2804 204.472 91.14C204.42 90.9995 204.412 90.8466 204.45 90.7017C204.488 90.5568 204.569 90.4269 204.683 90.3296C206.824 88.48 209.465 87.3058 212.272 86.9552C215.08 86.6045 217.929 87.0931 220.459 88.3594C220.545 88.4029 220.622 88.463 220.685 88.5363C220.748 88.6097 220.796 88.6947 220.826 88.7866C220.856 88.8786 220.867 88.9755 220.86 89.0719C220.852 89.1683 220.825 89.2622 220.781 89.3482C220.693 89.5207 220.541 89.6514 220.357 89.7118C220.173 89.7722 219.973 89.7573 219.8 89.6704C217.529 88.5334 214.972 88.095 212.452 88.4104C209.932 88.7259 207.563 89.7812 205.642 91.4429C205.508 91.558 205.336 91.6204 205.159 91.6187Z" fill="#080717"/>
        <path d="M206.213 97.3682C206.111 97.2147 206.07 97.0279 206.099 96.8454C206.128 96.6629 206.225 96.4981 206.37 96.3842C206.516 96.2702 206.699 96.2154 206.883 96.2309C207.067 96.2463 207.239 96.3308 207.363 96.4673C208.096 97.3609 208.63 97.1998 210.073 96.4673C210.478 96.2575 210.897 96.0741 211.326 95.918C211.974 95.7327 212.655 95.6937 213.32 95.8039C213.985 95.9141 214.617 96.1707 215.171 96.5552C215.249 96.611 215.316 96.6817 215.367 96.7632C215.418 96.8448 215.453 96.9356 215.469 97.0305C215.485 97.1253 215.482 97.2224 215.46 97.3162C215.439 97.41 215.399 97.4986 215.343 97.577C215.287 97.6554 215.217 97.722 215.135 97.7731C215.053 97.8241 214.963 97.8586 214.868 97.8746C214.773 97.8906 214.676 97.8877 214.582 97.8662C214.488 97.8447 214.4 97.8049 214.321 97.7491C213.956 97.5029 213.543 97.3359 213.109 97.259C212.675 97.182 212.23 97.1968 211.802 97.3023C210.271 97.8223 208.088 99.7632 206.213 97.3682Z" fill="#080717"/>
        <path d="M212.834 104.377C215.213 104.377 217.141 102.449 217.141 100.071C217.141 97.6923 215.213 95.7642 212.834 95.7642C210.456 95.7642 208.528 97.6923 208.528 100.071C208.528 102.449 210.456 104.377 212.834 104.377Z" fill="#080717"/>
        <path d="M224.268 110.859C223.308 109.08 226.677 101.96 228.179 98.9794C228.217 98.8864 228.275 98.8025 228.348 98.7327C228.42 98.6629 228.506 98.6089 228.601 98.574C228.695 98.5391 228.796 98.524 228.897 98.5298C228.997 98.5355 229.095 98.5619 229.185 98.6074C229.275 98.6528 229.355 98.7163 229.419 98.7939C229.483 98.8715 229.531 98.9614 229.559 99.0582C229.587 99.155 229.594 99.2565 229.581 99.3564C229.568 99.4562 229.534 99.5523 229.482 99.6386C227.285 104.033 225.198 109.27 225.564 110.171C225.959 110.903 228.728 111.401 231.042 111.357C231.237 111.357 231.423 111.435 231.56 111.572C231.698 111.709 231.775 111.896 231.775 112.09C231.775 112.284 231.698 112.47 231.56 112.608C231.423 112.745 231.237 112.822 231.042 112.822C229.131 112.859 225.19 112.551 224.268 110.859Z" fill="#080717"/>
        <path d="M258.385 115.278C258.458 113.135 255.856 111.307 252.574 111.195C249.291 111.083 246.571 112.729 246.497 114.871C246.424 117.014 249.026 118.842 252.308 118.954C255.591 119.066 258.311 117.421 258.385 115.278Z" fill="#F7B318"/>
        <path d="M214.856 112.711C214.93 110.568 212.328 108.74 209.045 108.628C205.763 108.516 203.042 110.161 202.969 112.304C202.895 114.447 205.497 116.275 208.78 116.387C212.062 116.499 214.783 114.853 214.856 112.711Z" fill="#F7B318"/>
        <path d="M189.082 100.994C188.893 100.993 188.712 100.919 188.577 100.789C186.13 98.4449 186.226 95.9546 188.137 93.9478L184.475 93.3545C184.379 93.3391 184.287 93.305 184.204 93.2539C184.121 93.2029 184.049 93.136 183.992 93.0571C183.934 92.9783 183.893 92.8889 183.871 92.7941C183.848 92.6994 183.844 92.6011 183.86 92.5049C183.875 92.4087 183.909 92.3165 183.96 92.2336C184.011 92.1506 184.078 92.0785 184.157 92.0213C184.236 91.9642 184.326 91.9232 184.42 91.9006C184.515 91.878 184.613 91.8743 184.709 91.8897L189.961 92.732C190.111 92.7544 190.25 92.8227 190.359 92.9273C190.468 93.032 190.542 93.1679 190.571 93.3164C190.6 93.4649 190.582 93.6187 190.52 93.7567C190.458 93.8946 190.355 94.01 190.225 94.087C190.225 94.087 188.379 95.2149 188.232 96.8555C188.13 97.7857 188.591 98.7525 189.617 99.7339C189.724 99.8368 189.797 99.9697 189.826 100.115C189.856 100.26 189.841 100.411 189.783 100.548C189.725 100.684 189.627 100.8 189.502 100.88C189.377 100.959 189.23 100.999 189.082 100.994Z" fill="#080717"/>
        <path d="M269.626 110.361C269.462 110.36 269.304 110.304 269.175 110.202C269.047 110.1 268.956 109.958 268.918 109.799C268.88 109.639 268.897 109.471 268.966 109.322C269.034 109.173 269.151 109.052 269.297 108.977C270.916 108.164 271.809 107.234 271.948 106.208C272.153 104.656 270.601 103.235 270.579 103.22C270.469 103.121 270.393 102.991 270.359 102.847C270.325 102.703 270.335 102.553 270.388 102.415C270.441 102.277 270.534 102.159 270.656 102.075C270.778 101.991 270.922 101.946 271.069 101.946H276.855C277.05 101.946 277.236 102.023 277.373 102.16C277.511 102.298 277.588 102.484 277.588 102.678C277.588 102.872 277.511 103.059 277.373 103.196C277.236 103.333 277.05 103.411 276.855 103.411H272.644C274.175 105.806 273.677 108.435 269.978 110.288C269.869 110.341 269.748 110.366 269.626 110.361Z" fill="#080717"/>
        <path d="M125.471 166.033C125.352 166.034 125.234 166.005 125.128 165.951C125.022 165.896 124.931 165.816 124.863 165.718C122.578 162.429 124.863 157.317 126.262 154.775C123.501 155.398 115.181 157.126 115.166 154.277C115.166 153.633 116.03 150.82 127.339 141.987C127.415 141.928 127.502 141.884 127.595 141.859C127.687 141.833 127.784 141.826 127.88 141.838C127.975 141.85 128.068 141.881 128.151 141.928C128.235 141.976 128.309 142.039 128.368 142.115C128.427 142.191 128.471 142.278 128.496 142.371C128.522 142.464 128.529 142.561 128.517 142.656C128.505 142.752 128.474 142.844 128.427 142.928C128.379 143.012 128.316 143.085 128.24 143.144C122.798 147.4 116.931 152.724 116.645 154.167C118.015 154.9 123.809 153.918 127.632 152.952C127.776 152.916 127.927 152.925 128.065 152.976C128.204 153.028 128.324 153.121 128.409 153.243C128.494 153.364 128.54 153.508 128.541 153.656C128.542 153.804 128.498 153.949 128.416 154.072C128.372 154.145 123.589 161.279 126.094 164.883C126.171 164.994 126.216 165.125 126.223 165.26C126.231 165.395 126.201 165.53 126.136 165.649C126.072 165.768 125.975 165.867 125.858 165.935C125.741 166.003 125.607 166.036 125.471 166.033Z" fill="#080717"/>
        <path d="M118.997 163.103C118.216 163.07 117.459 162.833 116.799 162.415C116.718 162.362 116.648 162.294 116.594 162.214C116.539 162.134 116.501 162.044 116.481 161.95C116.461 161.855 116.461 161.757 116.479 161.663C116.497 161.568 116.534 161.477 116.587 161.396C116.693 161.235 116.859 161.122 117.048 161.082C117.238 161.042 117.435 161.079 117.598 161.184C118.115 161.54 118.75 161.682 119.37 161.58C119.557 161.486 119.721 161.351 119.848 161.185C119.975 161.019 120.062 160.825 120.103 160.62C120.835 158.335 118.469 155.647 118.44 155.618C118.31 155.473 118.242 155.282 118.253 155.088C118.263 154.894 118.35 154.711 118.495 154.581C118.64 154.451 118.83 154.384 119.024 154.394C119.219 154.404 119.401 154.491 119.531 154.636C119.656 154.775 122.52 157.983 121.494 161.082C121.361 161.648 121.043 162.154 120.591 162.52C120.139 162.886 119.578 163.091 118.997 163.103Z" fill="#080717"/>
        <path d="M117.187 152.073C117.061 152.073 116.937 152.041 116.826 151.98C116.716 151.918 116.623 151.829 116.558 151.721L112.5 144.946C112.425 144.781 112.415 144.594 112.47 144.421C112.525 144.249 112.643 144.102 112.799 144.011C112.956 143.92 113.141 143.89 113.318 143.928C113.496 143.965 113.653 144.067 113.76 144.214L117.81 150.989C117.87 151.099 117.901 151.222 117.9 151.348C117.899 151.473 117.865 151.596 117.803 151.705C117.74 151.814 117.651 151.905 117.543 151.969C117.435 152.034 117.313 152.069 117.187 152.073Z" fill="#080717"/>
        <path d="M229.248 128.95C224.619 128.95 221.462 123.992 221.309 123.75C221.246 123.648 221.209 123.531 221.202 123.411C221.194 123.292 221.217 123.172 221.267 123.062C221.317 122.953 221.393 122.858 221.488 122.785C221.583 122.712 221.695 122.664 221.814 122.644L237.305 120.154C237.42 120.136 237.537 120.145 237.648 120.182C237.759 120.219 237.859 120.281 237.941 120.364C238.022 120.447 238.083 120.548 238.117 120.66C238.152 120.771 238.16 120.889 238.14 121.003C237.766 122.736 236.953 124.343 235.778 125.669C234.603 126.996 233.105 127.997 231.431 128.577C230.729 128.823 229.991 128.95 229.248 128.95ZM223.235 123.897C224.509 125.471 227.454 128.386 230.962 127.192C232.221 126.764 233.366 126.054 234.309 125.116C235.252 124.178 235.969 123.037 236.404 121.78L223.235 123.897Z" fill="#080717"/>
        <path d="M197.549 75.9303C197.355 75.904 197.179 75.8017 197.06 75.6458C196.941 75.4899 196.889 75.2932 196.915 75.099C196.942 74.9047 197.044 74.7288 197.2 74.61C197.356 74.4912 197.552 74.4392 197.747 74.4654C212.358 76.443 229.036 64.2115 229.204 64.0943C229.28 64.028 229.369 63.9781 229.466 63.9478C229.562 63.9175 229.663 63.9075 229.764 63.9183C229.864 63.9291 229.961 63.9605 230.049 64.0106C230.136 64.0607 230.213 64.1284 230.273 64.2094C230.333 64.2904 230.376 64.383 230.399 64.4813C230.422 64.5797 230.424 64.6817 230.405 64.7809C230.387 64.8802 230.348 64.9745 230.291 65.058C230.234 65.1415 230.161 65.2124 230.076 65.2662C226.781 67.6096 223.28 69.6493 219.617 71.36C212.922 74.5313 204.88 76.9044 197.549 75.9303Z" fill="white"/>
        <path d="M204.294 67.5146C201.983 67.5122 199.682 67.1993 197.454 66.5844C197.268 66.533 197.11 66.4103 197.014 66.243C196.918 66.0757 196.892 65.8773 196.941 65.6909C196.966 65.5974 197.008 65.5097 197.067 65.4328C197.126 65.356 197.199 65.2915 197.283 65.2432C197.367 65.1948 197.459 65.1635 197.555 65.1511C197.651 65.1387 197.748 65.1454 197.842 65.1709C201.002 66.0342 204.304 66.2482 207.55 65.8001C210.795 65.3519 213.916 64.2509 216.724 62.5634C216.883 62.4849 217.066 62.467 217.237 62.5131C217.409 62.5593 217.558 62.6663 217.657 62.8142C217.755 62.9621 217.797 63.1408 217.773 63.317C217.75 63.4933 217.663 63.6549 217.529 63.7719C213.558 66.2405 208.97 67.5378 204.294 67.5146Z" fill="white"/>
        <path d="M270.564 84.2285C270.401 84.2354 270.241 84.1881 270.109 84.0939C269.976 83.9998 269.879 83.8641 269.832 83.7084C265.254 68.5034 248.892 63.142 248.723 63.0908C248.554 63.0206 248.417 62.8896 248.34 62.7235C248.262 62.5574 248.25 62.3683 248.305 62.1935C248.36 62.0187 248.479 61.871 248.638 61.7795C248.796 61.688 248.984 61.6593 249.163 61.6992C249.338 61.7504 266.426 67.3242 271.23 83.2836C271.263 83.3903 271.271 83.503 271.253 83.6132C271.235 83.7233 271.193 83.8279 271.128 83.919C271.064 84.0102 270.98 84.0854 270.882 84.139C270.784 84.1927 270.675 84.2233 270.564 84.2285Z" fill="white"/>
        <path d="M164.583 164.619C164.452 164.62 164.323 164.586 164.209 164.521C164.096 164.455 164.002 164.36 163.938 164.246C163.497 163.352 163.243 162.378 163.191 161.384C163.14 160.389 163.292 159.394 163.638 158.46C164.663 155.772 167.3 153.662 171.46 152.19C182.93 148.118 186.724 142.478 186.489 129.822C186.233 116.309 186.013 112.507 188.408 109.204C188.521 109.047 188.692 108.942 188.883 108.91C189.073 108.879 189.269 108.924 189.426 109.036C189.505 109.092 189.572 109.163 189.623 109.245C189.674 109.327 189.708 109.418 189.724 109.513C189.74 109.609 189.736 109.706 189.714 109.8C189.692 109.894 189.651 109.983 189.595 110.061C187.397 113.137 187.727 117.612 187.954 129.793C188.196 143.071 184.006 149.29 171.951 153.567C168.215 154.893 165.886 156.702 165.015 158.958C164.744 159.698 164.624 160.484 164.66 161.271C164.697 162.059 164.889 162.831 165.227 163.543C165.286 163.654 165.316 163.779 165.313 163.905C165.31 164.031 165.274 164.155 165.209 164.263C165.144 164.371 165.052 164.461 164.943 164.523C164.833 164.586 164.709 164.619 164.583 164.619Z" fill="white"/>
        <path d="M186.116 152.248C185.948 152.249 185.785 152.193 185.654 152.088C185.523 151.983 185.432 151.837 185.396 151.673C185.36 151.51 185.382 151.339 185.457 151.189C185.532 151.039 185.656 150.919 185.808 150.85C189.521 149.128 191.917 146.836 192.942 144.045C193.72 141.773 193.65 139.297 192.744 137.073C192.661 136.897 192.65 136.695 192.716 136.512C192.781 136.328 192.916 136.178 193.092 136.095C193.268 136.011 193.47 136.001 193.653 136.066C193.836 136.132 193.986 136.267 194.07 136.443C195.142 139.006 195.233 141.874 194.326 144.499C193.169 147.686 190.51 150.256 186.423 152.153C186.33 152.209 186.224 152.242 186.116 152.248Z" fill="white"/>
        <path d="M268.696 148.176C268.563 148.176 268.432 148.139 268.317 148.07C268.203 148.001 268.11 147.901 268.048 147.783C267.986 147.665 267.958 147.531 267.967 147.398C267.975 147.265 268.02 147.136 268.096 147.026C273.889 138.662 266.748 123.149 266.675 122.996C266.592 122.82 266.583 122.618 266.649 122.436C266.715 122.253 266.851 122.104 267.026 122.022C267.202 121.939 267.404 121.93 267.586 121.996C267.769 122.062 267.918 122.197 268 122.373C269.318 125.339 270.332 128.431 271.025 131.602C272.49 138.56 271.948 144.053 269.297 147.861C269.23 147.958 269.14 148.038 269.035 148.093C268.931 148.147 268.814 148.176 268.696 148.176Z" fill="white"/>
        <path d="M199.05 310.957H160.869C159.457 310.957 158.313 312.101 158.313 313.513V331.428C158.313 332.84 159.457 333.984 160.869 333.984H199.05C200.462 333.984 201.606 332.84 201.606 331.428V313.513C201.606 312.101 200.462 310.957 199.05 310.957Z" fill="white"/>
        <path d="M199.05 334.717H160.869C159.998 334.715 159.162 334.368 158.546 333.751C157.93 333.135 157.583 332.3 157.581 331.428V313.513C157.583 312.642 157.93 311.806 158.546 311.19C159.162 310.574 159.998 310.227 160.869 310.225H199.05C199.922 310.225 200.759 310.571 201.376 311.188C201.992 311.805 202.339 312.641 202.339 313.513V331.428C202.339 332.3 201.992 333.137 201.376 333.754C200.759 334.37 199.922 334.717 199.05 334.717ZM160.869 311.689C160.386 311.691 159.923 311.884 159.582 312.226C159.24 312.567 159.047 313.03 159.045 313.513V331.428C159.047 331.911 159.24 332.374 159.582 332.716C159.923 333.057 160.386 333.25 160.869 333.252H199.05C199.533 333.25 199.996 333.057 200.338 332.716C200.679 332.374 200.872 331.911 200.874 331.428V313.513C200.872 313.03 200.679 312.567 200.338 312.226C199.996 311.884 199.533 311.691 199.05 311.689H160.869Z" fill="#090817"/>
        <path d="M308.657 310.957H270.476C269.064 310.957 267.92 312.101 267.92 313.513V331.428C267.92 332.84 269.064 333.984 270.476 333.984H308.657C310.069 333.984 311.213 332.84 311.213 331.428V313.513C311.213 312.101 310.069 310.957 308.657 310.957Z" fill="white"/>
        <path d="M308.657 334.717H270.476C269.604 334.715 268.769 334.368 268.153 333.751C267.537 333.135 267.189 332.3 267.188 331.428V313.513C267.189 312.642 267.537 311.806 268.153 311.19C268.769 310.574 269.604 310.227 270.476 310.225H308.657C309.529 310.225 310.366 310.571 310.983 311.188C311.599 311.805 311.946 312.641 311.946 313.513V331.428C311.946 332.3 311.599 333.137 310.983 333.754C310.366 334.37 309.529 334.717 308.657 334.717ZM270.476 311.689C269.993 311.691 269.53 311.884 269.189 312.226C268.847 312.567 268.654 313.03 268.652 313.513V331.428C268.654 331.911 268.847 332.374 269.189 332.716C269.53 333.057 269.993 333.25 270.476 333.252H308.657C309.14 333.25 309.603 333.057 309.945 332.716C310.286 332.374 310.479 331.911 310.481 331.428V313.513C310.479 313.03 310.286 312.567 309.945 312.226C309.603 311.884 309.14 311.691 308.657 311.689H270.476Z" fill="#090817"/>
        <path d="M313.191 170.442H155.889C151.637 170.442 148.191 173.888 148.191 178.14V312.502C148.191 316.754 151.637 320.2 155.889 320.2H313.191C317.442 320.2 320.889 316.754 320.889 312.502V178.14C320.889 173.888 317.442 170.442 313.191 170.442Z" fill="white"/>
        <path d="M313.191 320.94H155.889C153.653 320.936 151.51 320.046 149.929 318.464C148.349 316.882 147.46 314.738 147.459 312.502V178.147C147.46 175.911 148.349 173.767 149.929 172.185C151.51 170.604 153.653 169.713 155.889 169.709H313.191C315.427 169.713 317.57 170.604 319.15 172.185C320.731 173.767 321.619 175.911 321.621 178.147V312.502C321.619 314.738 320.731 316.882 319.15 318.464C317.57 320.046 315.427 320.936 313.191 320.94ZM155.889 171.174C154.041 171.178 152.271 171.914 150.965 173.221C149.66 174.528 148.925 176.3 148.923 178.147V312.502C148.925 314.35 149.66 316.121 150.965 317.428C152.271 318.735 154.041 319.471 155.889 319.475H313.191C315.038 319.471 316.809 318.735 318.114 317.428C319.42 316.121 320.154 314.35 320.156 312.502V178.147C320.154 176.3 319.42 174.528 318.114 173.221C316.809 171.914 315.038 171.178 313.191 171.174H155.889Z" fill="#090817"/>
        <path d="M309.199 181.26H159.88C158.044 181.26 156.555 182.749 156.555 184.585V306.064C156.555 307.901 158.044 309.39 159.88 309.39H309.199C311.036 309.39 312.524 307.901 312.524 306.064V184.585C312.524 182.749 311.036 181.26 309.199 181.26Z" fill="white"/>
        <path d="M309.199 310.122H159.88C158.804 310.122 157.772 309.695 157.011 308.934C156.25 308.173 155.823 307.141 155.823 306.064V184.57C155.823 183.494 156.25 182.462 157.011 181.701C157.772 180.94 158.804 180.513 159.88 180.513H309.199C310.275 180.515 311.306 180.943 312.066 181.703C312.827 182.464 313.255 183.495 313.257 184.57V306.064C313.255 307.14 312.827 308.171 312.066 308.932C311.306 309.692 310.275 310.12 309.199 310.122ZM159.88 181.992C159.193 181.994 158.535 182.268 158.049 182.754C157.563 183.24 157.29 183.898 157.288 184.585V306.064C157.29 306.752 157.563 307.41 158.049 307.896C158.535 308.382 159.193 308.655 159.88 308.657H309.199C309.886 308.655 310.545 308.382 311.03 307.896C311.516 307.41 311.79 306.752 311.792 306.064V184.57C311.79 183.883 311.516 183.225 311.03 182.739C310.545 182.253 309.886 181.979 309.199 181.978L159.88 181.992Z" fill="#090817"/>
        <path d="M164.436 190.195H144.412C143.837 190.195 143.372 190.661 143.372 191.235V221.902C143.372 222.476 143.837 222.942 144.412 222.942H164.436C165.01 222.942 165.476 222.476 165.476 221.902V191.235C165.476 190.661 165.01 190.195 164.436 190.195Z" fill="#080717"/>
        <path d="M164.436 265.107H144.412C143.837 265.107 143.372 265.573 143.372 266.147V296.814C143.372 297.388 143.837 297.854 144.412 297.854H164.436C165.01 297.854 165.476 297.388 165.476 296.814V266.147C165.476 265.573 165.01 265.107 164.436 265.107Z" fill="#080717"/>
        <path d="M234.536 291.379C259.971 291.379 280.591 270.76 280.591 245.325C280.591 219.889 259.971 199.27 234.536 199.27C209.101 199.27 188.481 219.889 188.481 245.325C188.481 270.76 209.101 291.379 234.536 291.379Z" fill="white"/>
        <path d="M234.536 292.112C225.281 292.112 216.234 289.367 208.539 284.224C200.844 279.082 194.847 271.772 191.307 263.221C187.767 254.67 186.842 245.26 188.651 236.184C190.459 227.107 194.919 218.77 201.466 212.228C208.013 205.686 216.353 201.233 225.431 199.432C234.509 197.631 243.918 198.563 252.466 202.11C261.015 205.656 268.319 211.659 273.456 219.358C278.593 227.057 281.331 236.106 281.323 245.361C281.29 257.757 276.349 269.634 267.581 278.396C258.813 287.157 246.931 292.089 234.536 292.112ZM234.536 200.002C225.574 200.002 216.813 202.66 209.36 207.638C201.908 212.617 196.099 219.693 192.667 227.972C189.236 236.252 188.336 245.363 190.082 254.153C191.828 262.944 196.141 271.02 202.476 277.359C208.81 283.699 216.883 288.019 225.672 289.772C234.461 291.525 243.573 290.632 251.855 287.208C260.137 283.783 267.218 277.979 272.202 270.531C277.187 263.083 279.851 254.324 279.858 245.361C279.845 233.342 275.067 221.818 266.571 213.316C258.076 204.813 246.556 200.026 234.536 200.002Z" fill="#090817"/>
        <path d="M234.536 283.396C255.562 283.396 272.607 266.351 272.607 245.325C272.607 224.299 255.562 207.253 234.536 207.253C213.51 207.253 196.465 224.299 196.465 245.325C196.465 266.351 213.51 283.396 234.536 283.396Z" fill="white"/>
        <path d="M234.536 284.128C226.859 284.128 219.353 281.852 212.97 277.586C206.586 273.321 201.611 267.258 198.673 260.165C195.735 253.072 194.966 245.267 196.464 237.737C197.961 230.207 201.659 223.29 207.087 217.861C212.516 212.432 219.433 208.735 226.963 207.238C234.493 205.74 242.298 206.509 249.391 209.447C256.484 212.385 262.547 217.36 266.812 223.744C271.078 230.127 273.354 237.633 273.354 245.31C273.354 255.605 269.265 265.479 261.985 272.759C254.705 280.039 244.831 284.128 234.536 284.128ZM234.536 207.957C227.148 207.957 219.926 210.147 213.784 214.252C207.641 218.356 202.853 224.19 200.026 231.015C197.199 237.841 196.459 245.352 197.9 252.597C199.342 259.843 202.899 266.499 208.123 271.723C213.347 276.947 220.003 280.505 227.249 281.946C234.495 283.387 242.005 282.647 248.831 279.82C255.656 276.993 261.49 272.205 265.594 266.063C269.699 259.92 271.89 252.698 271.89 245.31C271.876 235.412 267.935 225.924 260.931 218.93C253.927 211.936 244.434 208.008 234.536 208.008V207.957Z" fill="#090817"/>
        <path d="M234.536 266.404C246.178 266.404 255.615 256.966 255.615 245.325C255.615 233.683 246.178 224.246 234.536 224.246C222.894 224.246 213.457 233.683 213.457 245.325C213.457 256.966 222.894 266.404 234.536 266.404Z" fill="#080717"/>
        <path d="M234.536 257.607C241.32 257.607 246.819 252.108 246.819 245.325C246.819 238.541 241.32 233.042 234.536 233.042C227.753 233.042 222.253 238.541 222.253 245.325C222.253 252.108 227.753 257.607 234.536 257.607Z" fill="white"/>
        <path d="M237.187 210.249H231.899C231.042 210.249 230.347 210.944 230.347 211.802V226.912C230.347 227.769 231.042 228.464 231.899 228.464H237.187C238.045 228.464 238.74 227.769 238.74 226.912V211.802C238.74 210.944 238.045 210.249 237.187 210.249Z" fill="#080717"/>
        <path d="M237.187 262.039H231.899C231.042 262.039 230.347 262.734 230.347 263.591V278.701C230.347 279.559 231.042 280.254 231.899 280.254H237.187C238.045 280.254 238.74 279.559 238.74 278.701V263.591C238.74 262.734 238.045 262.039 237.187 262.039Z" fill="#080717"/>
        <path d="M269.539 247.903V242.615C269.539 241.757 268.843 241.062 267.986 241.062H252.876C252.018 241.062 251.323 241.757 251.323 242.615V247.903C251.323 248.76 252.018 249.456 252.876 249.456H267.986C268.843 249.456 269.539 248.76 269.539 247.903Z" fill="#080717"/>
        <path d="M217.756 247.896V242.607C217.756 241.75 217.061 241.055 216.204 241.055H201.094C200.236 241.055 199.541 241.75 199.541 242.607V247.896C199.541 248.753 200.236 249.448 201.094 249.448H216.204C217.061 249.448 217.756 248.753 217.756 247.896Z" fill="#080717"/>
        <path d="M261.154 222.376L257.415 218.637C256.808 218.031 255.825 218.031 255.219 218.637L244.535 229.321C243.928 229.928 243.928 230.911 244.535 231.517L248.274 235.256C248.88 235.863 249.863 235.863 250.47 235.256L261.154 224.572C261.76 223.966 261.76 222.983 261.154 222.376Z" fill="#080717"/>
        <path d="M224.543 258.99L220.804 255.251C220.197 254.644 219.214 254.644 218.608 255.251L207.923 265.935C207.317 266.541 207.317 267.525 207.923 268.131L211.663 271.87C212.269 272.477 213.252 272.477 213.859 271.87L224.543 261.186C225.149 260.58 225.149 259.596 224.543 258.99Z" fill="#080717"/>
        <path d="M257.42 271.871L261.159 268.131C261.766 267.525 261.766 266.542 261.159 265.936L250.475 255.251C249.868 254.645 248.885 254.645 248.279 255.251L244.54 258.99C243.933 259.597 243.933 260.58 244.54 261.186L255.224 271.871C255.83 272.477 256.814 272.477 257.42 271.871Z" fill="#080717"/>
        <path d="M220.796 235.257L224.536 231.518C225.142 230.911 225.142 229.928 224.536 229.322L213.851 218.637C213.245 218.031 212.262 218.031 211.655 218.637L207.916 222.377C207.31 222.983 207.31 223.966 207.916 224.573L218.6 235.257C219.207 235.863 220.19 235.863 220.796 235.257Z" fill="#080717"/>
        <path d="M153.655 193.367H144.214V199.27H153.655V193.367Z" fill="white"/>
        <path d="M153.655 200.002H144.214C144.02 200.002 143.833 199.925 143.696 199.788C143.559 199.651 143.481 199.464 143.481 199.27V193.359C143.481 193.165 143.559 192.979 143.696 192.841C143.833 192.704 144.02 192.627 144.214 192.627H153.655C153.849 192.627 154.035 192.704 154.173 192.841C154.31 192.979 154.387 193.165 154.387 193.359V199.263C154.388 199.359 154.37 199.456 154.334 199.545C154.297 199.635 154.243 199.717 154.175 199.785C154.107 199.854 154.026 199.909 153.937 199.946C153.847 199.983 153.752 200.002 153.655 200.002ZM144.946 198.538H152.922V194.092H144.946V198.538Z" fill="#090817"/>
        <path d="M153.655 212.095H144.214V217.998H153.655V212.095Z" fill="white"/>
        <path d="M153.655 218.73H144.214C144.02 218.73 143.833 218.653 143.696 218.516C143.559 218.379 143.481 218.192 143.481 217.998V212.095C143.481 211.9 143.559 211.714 143.696 211.577C143.833 211.439 144.02 211.362 144.214 211.362H153.655C153.849 211.362 154.035 211.439 154.173 211.577C154.31 211.714 154.387 211.9 154.387 212.095V217.998C154.387 218.094 154.368 218.189 154.331 218.278C154.295 218.367 154.241 218.448 154.173 218.516C154.105 218.584 154.024 218.638 153.935 218.675C153.846 218.712 153.751 218.73 153.655 218.73ZM144.946 217.266H152.922V212.827H144.946V217.266Z" fill="#090817"/>
        <path d="M153.655 269.165H144.214V275.068H153.655V269.165Z" fill="white"/>
        <path d="M153.655 275.801H144.214C144.02 275.801 143.833 275.724 143.696 275.586C143.559 275.449 143.481 275.263 143.481 275.068V269.165C143.481 268.971 143.559 268.785 143.696 268.647C143.833 268.51 144.02 268.433 144.214 268.433H153.655C153.849 268.433 154.035 268.51 154.173 268.647C154.31 268.785 154.387 268.971 154.387 269.165V275.068C154.387 275.165 154.368 275.26 154.331 275.349C154.295 275.438 154.241 275.518 154.173 275.586C154.105 275.654 154.024 275.708 153.935 275.745C153.846 275.782 153.751 275.801 153.655 275.801ZM144.946 274.336H152.922V269.897H144.946V274.336Z" fill="#090817"/>
        <path d="M153.655 287.893H144.214V293.796H153.655V287.893Z" fill="white"/>
        <path d="M153.655 294.529H144.214C144.02 294.529 143.833 294.452 143.696 294.314C143.559 294.177 143.481 293.991 143.481 293.796V287.893C143.481 287.699 143.559 287.513 143.696 287.375C143.833 287.238 144.02 287.161 144.214 287.161H153.655C153.849 287.161 154.035 287.238 154.173 287.375C154.31 287.513 154.387 287.699 154.387 287.893V293.796C154.387 293.893 154.368 293.988 154.331 294.077C154.295 294.166 154.241 294.246 154.173 294.314C154.105 294.382 154.024 294.436 153.935 294.473C153.846 294.51 153.751 294.529 153.655 294.529ZM144.946 293.064H152.922V288.625H144.946V293.064Z" fill="#090817"/>
        <path d="M252.048 279.053C252.048 279.053 243.918 280.056 239.81 280.518C235.701 280.979 223.389 277.5 222.773 279.785C222.158 282.07 230.669 286.099 230.669 286.099C230.669 286.099 220.005 285.967 216.189 285.015C212.373 284.062 207.825 281.294 206.118 282.085C204.412 282.876 205.115 284.795 205.115 284.795C205.115 284.795 200.427 283.088 199.167 284.949C197.908 286.809 200.544 289.211 200.544 289.211C200.544 289.211 196.824 288.977 197.673 291.841C198.523 294.705 203.02 296.968 203.02 296.968C203.02 296.968 199.358 296.506 200.23 299.062C201.101 301.619 210.059 309.36 223.967 311.843C237.876 314.326 257.703 309.602 257.703 309.602C257.703 309.602 266.689 282.341 252.048 279.053Z" fill="white"/>
        <path d="M223.843 312.495C209.194 309.888 200.405 301.846 199.541 299.224C199.415 298.96 199.347 298.673 199.342 298.381C199.337 298.089 199.394 297.8 199.51 297.532C199.626 297.264 199.797 297.024 200.014 296.828C200.23 296.632 200.486 296.485 200.764 296.396C199.299 295.4 197.52 293.84 196.978 292.002C196.465 290.288 197.219 288.984 199.058 288.56C198.325 287.52 197.593 285.93 198.56 284.487C199.702 282.803 202.603 283.279 204.236 283.711C204.243 283.209 204.397 282.72 204.678 282.304C204.959 281.887 205.355 281.562 205.818 281.367C207.927 280.408 212.41 283.286 216.365 284.297C218.767 284.897 224.062 285.161 227.498 285.278C224.692 283.696 221.558 281.462 222.063 279.587C222.568 277.712 226.091 278.123 232.251 279.06C235.181 279.507 238.169 279.961 239.729 279.792C245.918 279.097 251.96 278.284 252.18 278.328C253.618 278.625 254.974 279.232 256.154 280.106C257.334 280.98 258.31 282.1 259.014 283.389C264.053 292.317 258.604 309.082 258.369 309.792C258.33 309.911 258.261 310.018 258.168 310.103C258.076 310.188 257.964 310.247 257.842 310.276C248.291 312.524 233.796 314.275 223.843 312.495ZM200.925 297.986C199.717 299.451 209.377 308.43 224.099 311.052C236.616 313.286 254.253 309.587 257.131 308.914C257.915 306.343 262.083 291.724 257.769 284.077C257.173 282.988 256.351 282.039 255.358 281.293C254.365 280.548 253.224 280.024 252.012 279.756C250.95 279.888 243.669 280.781 239.897 281.221C236.235 281.631 224.517 278.767 223.462 279.976C223.235 280.832 226.816 283.433 230.984 285.403C231.138 285.473 231.263 285.594 231.337 285.745C231.412 285.897 231.432 286.069 231.395 286.234C231.357 286.399 231.263 286.545 231.129 286.649C230.996 286.752 230.831 286.806 230.662 286.802C230.222 286.802 219.866 286.655 216.013 285.696C212.534 284.832 207.664 282.136 206.418 282.707C206.107 282.875 205.871 283.153 205.757 283.488C205.643 283.822 205.659 284.187 205.803 284.509C205.849 284.64 205.857 284.782 205.826 284.918C205.795 285.053 205.725 285.177 205.626 285.274C205.527 285.372 205.402 285.439 205.266 285.468C205.13 285.498 204.989 285.488 204.858 285.439C203.511 284.949 200.464 284.275 199.775 285.315C198.904 286.604 201.013 288.603 201.035 288.625C201.148 288.728 201.227 288.862 201.26 289.011C201.293 289.16 201.278 289.316 201.219 289.456C201.159 289.596 201.057 289.714 200.927 289.794C200.797 289.874 200.645 289.911 200.493 289.9C200.098 289.9 198.882 289.9 198.45 290.478C198.376 290.566 198.157 290.845 198.376 291.592C199.109 294.119 203.306 296.235 203.35 296.257C203.506 296.334 203.63 296.463 203.7 296.622C203.769 296.782 203.78 296.96 203.73 297.127C203.679 297.293 203.572 297.437 203.425 297.531C203.279 297.625 203.105 297.664 202.932 297.642C202.39 297.568 201.255 297.583 200.925 297.986Z" fill="#090817"/>
        <path d="M325.488 241.274C303.081 259.999 276.423 272.943 247.852 278.972L252.686 311.199C263.365 311.441 274.035 310.433 284.48 308.196C301.018 304.636 329.473 298.521 339.038 277.368C339.983 275.281 346.802 259.607 338.716 249.016C334.717 243.787 328.74 241.97 325.488 241.274Z" fill="#F7B318"/>
        <path d="M220.261 304.497C213.472 302.915 202.471 297.415 202.002 297.173C201.828 297.085 201.696 296.933 201.635 296.748C201.574 296.563 201.589 296.362 201.676 296.188C201.763 296.014 201.916 295.882 202.101 295.821C202.286 295.76 202.487 295.774 202.661 295.862C202.771 295.92 213.97 301.516 220.591 303.062C220.781 303.105 220.946 303.223 221.05 303.388C221.154 303.554 221.188 303.754 221.144 303.944C221.1 304.135 220.983 304.3 220.817 304.403C220.652 304.507 220.452 304.541 220.261 304.497Z" fill="#080717"/>
        <path d="M221.301 297.942C213.831 296.477 200.793 290.09 200.222 289.819C200.047 289.734 199.914 289.582 199.85 289.398C199.787 289.214 199.8 289.013 199.885 288.838C199.971 288.663 200.122 288.529 200.306 288.466C200.49 288.403 200.692 288.415 200.867 288.501C200.999 288.567 214.307 295.093 221.587 296.506C221.681 296.526 221.771 296.563 221.85 296.617C221.93 296.671 221.999 296.74 222.052 296.82C222.105 296.9 222.141 296.99 222.16 297.085C222.178 297.179 222.177 297.276 222.158 297.371C222.119 297.559 222.008 297.725 221.847 297.832C221.687 297.939 221.491 297.979 221.301 297.942Z" fill="#080717"/>
        <path d="M224.919 292.112C211.934 291.46 204.924 285.52 204.631 285.3C204.483 285.173 204.391 284.992 204.376 284.797C204.361 284.602 204.424 284.409 204.551 284.26C204.678 284.112 204.859 284.02 205.054 284.005C205.249 283.989 205.442 284.052 205.591 284.18C205.657 284.238 212.541 290.039 224.993 290.64C225.187 290.649 225.369 290.736 225.5 290.88C225.63 291.024 225.698 291.214 225.688 291.409C225.679 291.603 225.592 291.785 225.448 291.916C225.304 292.046 225.114 292.114 224.919 292.104V292.112Z" fill="#080717"/>
        <path d="M164.473 49.7461H91.1133C89.7101 49.7461 88.3643 50.303 87.3714 51.2945C86.3786 52.286 85.8198 53.631 85.8179 55.0342V97.9614C85.8159 98.6581 85.9515 99.3482 86.2167 99.9924C86.482 100.637 86.8718 101.222 87.3637 101.715C87.8556 102.209 88.44 102.6 89.0834 102.867C89.7268 103.134 90.4166 103.271 91.1133 103.271H150.879L158.643 123.933C158.69 124.055 158.776 124.157 158.888 124.224C159 124.291 159.131 124.319 159.261 124.303C159.39 124.287 159.511 124.228 159.603 124.136C159.696 124.044 159.754 123.923 159.771 123.794L162.019 103.286H164.465C165.868 103.284 167.214 102.725 168.205 101.733C169.197 100.74 169.753 99.3939 169.753 97.9907V55.0342C169.753 53.633 169.197 52.289 168.207 51.2975C167.217 50.306 165.874 49.748 164.473 49.7461Z" fill="white"/>
        <path d="M157.969 124.175L150.374 104.004H91.1133C89.5152 104.002 87.9831 103.366 86.8531 102.236C85.7231 101.106 85.0874 99.5742 85.0854 97.9761V55.0342C85.0874 53.4368 85.7233 51.9054 86.8536 50.7766C87.9838 49.6477 89.5159 49.0137 91.1133 49.0137H164.473C166.069 49.0156 167.599 49.6505 168.728 50.7792C169.856 51.9078 170.491 53.438 170.493 55.0342V97.9614C170.493 99.5588 169.859 101.091 168.73 102.221C167.601 103.351 166.07 103.987 164.473 103.989H162.686L160.488 123.86C160.451 124.148 160.319 124.416 160.113 124.621C159.907 124.827 159.639 124.958 159.351 124.994C159.062 125.03 158.77 124.969 158.52 124.821C158.269 124.672 158.076 124.445 157.969 124.175ZM91.1133 50.4785C89.9044 50.4785 88.7449 50.9583 87.8893 51.8124C87.0338 52.6665 86.5522 53.8253 86.5503 55.0342V97.9614C86.5484 98.5619 86.665 99.1568 86.8934 99.7121C87.1219 100.267 87.4577 100.772 87.8816 101.197C88.3055 101.623 88.8091 101.96 89.3637 102.19C89.9183 102.421 90.5128 102.539 91.1133 102.539H150.879C151.027 102.54 151.172 102.586 151.294 102.671C151.415 102.756 151.508 102.876 151.56 103.015L159.119 123.047L161.316 103.154C161.336 102.974 161.422 102.808 161.557 102.688C161.692 102.567 161.867 102.501 162.048 102.502H164.495C165.704 102.5 166.862 102.019 167.716 101.163C168.571 100.308 169.05 99.1484 169.05 97.9395V55.0342C169.048 53.8265 168.568 52.6689 167.714 51.815C166.86 50.961 165.702 50.4805 164.495 50.4785H91.1133Z" fill="#090817"/>
        <path d="M124.446 93.8965C120.11 93.9917 116.389 92.7978 115.334 91.0034C114.434 89.436 115.159 86.748 116.353 86.0449C116.851 85.7446 117.356 85.8911 118.77 86.2866C121.421 87.019 129.207 89.0405 130.664 86.7261C130.934 86.2386 131.082 85.6935 131.096 85.1367C130.979 79.4165 124.299 79.6582 118.879 77.6221C113.987 75.7837 112.346 63.6035 119.758 60.4321C124.519 58.3887 129.734 60.3735 133.784 63.6182C134.015 63.8024 134.184 64.0521 134.271 64.3344C134.357 64.6167 134.356 64.9185 134.268 65.2002C133.572 67.6318 132.18 68.335 129.426 66.8921C126.907 65.581 122.783 65.6616 121.67 68.0713C121.496 68.5798 121.426 69.1184 121.465 69.6545C121.504 70.1907 121.651 70.7134 121.897 71.1914C124.138 75.8716 131.316 73.5058 135.176 77.3437C137.922 80.083 138.201 84.9243 136.89 87.8393C134.934 92.1606 128.965 93.8013 124.446 93.8965Z" fill="#080717"/>
        <path d="M126.551 56.0392L124.742 56.0771C124.103 56.0905 123.596 56.6193 123.61 57.2583L124.428 96.3171C124.441 96.9561 124.97 97.4632 125.609 97.4498L127.418 97.412C128.057 97.3986 128.564 96.8697 128.551 96.2307L127.732 57.1719C127.719 56.533 127.19 56.0258 126.551 56.0392Z" fill="#080717"/>
        <path d="M113.43 165.403C110.112 164.238 105.374 158.079 105.198 157.815C105.08 157.661 105.029 157.466 105.055 157.274C105.081 157.081 105.183 156.907 105.337 156.79C105.414 156.73 105.501 156.687 105.595 156.662C105.689 156.637 105.786 156.631 105.882 156.643C105.978 156.656 106.071 156.688 106.155 156.737C106.238 156.786 106.311 156.851 106.37 156.929C107.651 158.613 111.497 163.176 113.914 164.019C113.914 164.019 116.455 164.854 117.056 163.528C117.261 162.283 112.178 154.937 107.351 148.879C107.281 148.806 107.228 148.718 107.194 148.623C107.16 148.527 107.146 148.426 107.153 148.325C107.16 148.223 107.189 148.125 107.236 148.035C107.283 147.945 107.349 147.866 107.428 147.803C107.507 147.74 107.599 147.694 107.697 147.668C107.795 147.643 107.897 147.637 107.998 147.653C108.098 147.669 108.194 147.705 108.279 147.76C108.364 147.815 108.438 147.887 108.494 147.971C112.603 153.098 119.341 162.07 118.389 164.143C117.561 165.945 115.261 166.04 113.43 165.403Z" fill="#080717"/>
    </g>
    <defs>
        <clipPath id="clip0_1400_6670">
            <rect width="375" height="375" fill="white"/>
        </clipPath>
    </defs>
</svg>
