<svg width="119" height="117" viewBox="0 0 119 117" fill="none" xmlns="http://www.w3.org/2000/svg">
    <path d="M72.4369 50.4831C75.0689 47.38 75.0209 43.4821 72.3131 40.4125L61.9335 28.6454L37.9498 1.18307C37.2936 0.431291 36.344 0 35.3461 0H22.2762C21.0734 0 20.4343 1.42028 21.2318 2.32078L57.1648 42.8779C58.7476 44.6647 59.1387 47.2934 57.5693 49.0858L0.400558 114.306C-0.512584 115.36 0.236221 117 1.63122 117H11.4724C12.4108 117 13.3054 116.601 13.9322 115.903L68.2519 55.4172L72.4369 50.4831Z" fill="#F7B318" fill-opacity="0.6"/>
    <path d="M117.938 92.2014L88.8034 59.148C88.7726 59.1127 81.6359 51.3145 81.6359 51.3145C81.1432 50.7698 80.3018 50.7275 79.7571 51.2205L77.9588 52.8467C74.1842 56.2602 73.8913 62.0867 77.3048 65.8612L79.224 67.9835L101.991 94.2452C102.093 94.3653 102.244 94.4344 102.402 94.4344H116.925C118.082 94.4344 118.7 93.0718 117.938 92.2014Z" fill="#F7B318" fill-opacity="0.6"/>
    <path d="M115.466 2.23305L88.8683 32.2347C88.8374 32.2701 81.7003 40.0678 81.7003 40.0678C81.2077 40.6129 80.3667 40.6549 79.8216 40.1623L78.0232 38.5356C74.2487 35.1225 74.3796 29.6689 77.7931 25.8948L79.7123 23.7726L100.266 0.553996C100.369 0.433905 100.519 0.364749 100.677 0.364749L114.453 1.46287e-05C115.61 1.46287e-05 116.228 1.36266 115.466 2.23305Z" fill="#F7B318" fill-opacity="0.6"/>
</svg>
