<svg xmlns="http://www.w3.org/2000/svg" viewBox="0 0 1440 320"><path fill="#273036" fill-opacity="0.15" d="M0,224L10.4,229.3C20.9,235,42,245,63,250.7C83.5,256,104,256,125,213.3C146.1,171,167,85,188,53.3C208.7,21,230,43,250,85.3C271.3,128,292,192,313,208C333.9,224,355,192,376,181.3C396.5,171,417,181,438,186.7C459.1,192,480,192,501,170.7C521.7,149,543,107,563,106.7C584.3,107,605,149,626,176C647,203,668,213,689,197.3C709.6,181,730,139,751,128C772.2,117,793,139,814,170.7C834.8,203,856,245,877,266.7C897.4,288,918,288,939,266.7C960,245,981,203,1002,160C1022.6,117,1043,75,1064,53.3C1085.2,32,1106,32,1127,48C1147.8,64,1169,96,1190,128C1210.4,160,1231,192,1252,186.7C1273,181,1294,139,1315,112C1335.7,85,1357,75,1377,85.3C1398.3,96,1419,128,1430,144L1440,160L1440,320L1429.6,320C1419.1,320,1398,320,1377,320C1356.5,320,1336,320,1315,320C1293.9,320,1273,320,1252,320C1231.3,320,1210,320,1190,320C1168.7,320,1148,320,1127,320C1106.1,320,1085,320,1064,320C1043.5,320,1023,320,1002,320C980.9,320,960,320,939,320C918.3,320,897,320,877,320C855.7,320,835,320,814,320C793,320,772,320,751,320C730.4,320,710,320,689,320C667.8,320,647,320,626,320C605.2,320,584,320,563,320C542.6,320,522,320,501,320C480,320,459,320,438,320C417.4,320,397,320,376,320C354.8,320,334,320,313,320C292.2,320,271,320,250,320C229.6,320,209,320,188,320C167,320,146,320,125,320C104.3,320,83,320,63,320C41.7,320,21,320,10,320L0,320Z"></path></svg>